<svg width="422" height="139" viewBox="0 0 422 139" fill="none" xmlns="http://www.w3.org/2000/svg">
<g filter="url(#filter0_d_86_148)">
<path d="M357.772 30H64.2278C53.6086 30 45 34.8393 45 40.8088V68.1912C45 74.1607 53.6086 79 64.2278 79H357.772C368.391 79 377 74.1607 377 68.1912V40.8088C377 34.8393 368.391 30 357.772 30Z" fill="white"/>
</g>
<path d="M77.3333 42H64.6667C60.9848 42 58 44.9848 58 48.6667V61.3333C58 65.0152 60.9848 68 64.6667 68H77.3333C81.0152 68 84 65.0152 84 61.3333V48.6667C84 44.9848 81.0152 42 77.3333 42Z" fill="url(#paint0_linear_86_148)"/>
<path d="M71 49V62" stroke="white" stroke-width="3" stroke-linecap="round"/>
<path d="M77 55H65" stroke="white" stroke-width="3" stroke-linecap="round"/>
<path d="M100.416 60.1909V51.6089H97.056V50.3909H105.162V51.6089H101.802V60.1909H100.416ZM106.313 60.1909V52.7709H107.601V54.7869L107.475 54.2829C107.68 53.7696 108.026 53.3776 108.511 53.1069C108.996 52.8363 109.594 52.7009 110.303 52.7009V54.0029C110.247 53.9936 110.191 53.9889 110.135 53.9889C110.088 53.9889 110.042 53.9889 109.995 53.9889C109.276 53.9889 108.707 54.2036 108.287 54.6329C107.867 55.0623 107.657 55.6829 107.657 56.4949V60.1909H106.313ZM116.019 60.1909V58.6229L115.949 58.3289V55.6549C115.949 55.0856 115.781 54.6469 115.445 54.3389C115.118 54.0216 114.623 53.8629 113.961 53.8629C113.522 53.8629 113.093 53.9376 112.673 54.0869C112.253 54.2269 111.898 54.4183 111.609 54.6609L111.049 53.6529C111.431 53.3449 111.889 53.1116 112.421 52.9529C112.962 52.7849 113.527 52.7009 114.115 52.7009C115.132 52.7009 115.916 52.9483 116.467 53.4429C117.017 53.9376 117.293 54.6936 117.293 55.7109V60.1909H116.019ZM113.583 60.2749C113.032 60.2749 112.547 60.1816 112.127 59.9949C111.716 59.8083 111.399 59.5516 111.175 59.2249C110.951 58.8889 110.839 58.5109 110.839 58.0909C110.839 57.6896 110.932 57.3256 111.119 56.9989C111.315 56.6723 111.627 56.4109 112.057 56.2149C112.495 56.0189 113.083 55.9209 113.821 55.9209H116.173V56.8869H113.877C113.205 56.8869 112.752 56.9989 112.519 57.2229C112.285 57.4469 112.169 57.7176 112.169 58.0349C112.169 58.3989 112.313 58.6929 112.603 58.9169C112.892 59.1316 113.293 59.2389 113.807 59.2389C114.311 59.2389 114.749 59.1269 115.123 58.9029C115.505 58.6789 115.781 58.3523 115.949 57.9229L116.215 58.8469C116.037 59.2856 115.725 59.6356 115.277 59.8969C114.829 60.1489 114.264 60.2749 113.583 60.2749ZM123.742 52.7009C124.349 52.7009 124.881 52.8176 125.338 53.0509C125.805 53.2843 126.169 53.6389 126.43 54.1149C126.691 54.5909 126.822 55.1929 126.822 55.9209V60.1909H125.478V56.0749C125.478 55.3563 125.301 54.8149 124.946 54.4509C124.601 54.0869 124.111 53.9049 123.476 53.9049C123 53.9049 122.585 53.9983 122.23 54.1849C121.875 54.3716 121.6 54.6469 121.404 55.0109C121.217 55.3749 121.124 55.8276 121.124 56.3689V60.1909H119.78V52.7709H121.068V54.7729L120.858 54.2409C121.101 53.7556 121.474 53.3776 121.978 53.1069C122.482 52.8363 123.07 52.7009 123.742 52.7009ZM131.437 60.2749C130.821 60.2749 130.233 60.1909 129.673 60.0229C129.122 59.8549 128.688 59.6496 128.371 59.4069L128.931 58.3429C129.248 58.5576 129.64 58.7396 130.107 58.8889C130.574 59.0383 131.05 59.1129 131.535 59.1129C132.16 59.1129 132.608 59.0243 132.879 58.8469C133.159 58.6696 133.299 58.4223 133.299 58.1049C133.299 57.8716 133.215 57.6896 133.047 57.5589C132.879 57.4283 132.655 57.3303 132.375 57.2649C132.104 57.1996 131.801 57.1436 131.465 57.0969C131.129 57.0409 130.793 56.9756 130.457 56.9009C130.121 56.8169 129.813 56.7049 129.533 56.5649C129.253 56.4156 129.029 56.2149 128.861 55.9629C128.693 55.7016 128.609 55.3563 128.609 54.9269C128.609 54.4789 128.735 54.0869 128.987 53.7509C129.239 53.4149 129.594 53.1583 130.051 52.9809C130.518 52.7943 131.068 52.7009 131.703 52.7009C132.188 52.7009 132.678 52.7616 133.173 52.8829C133.677 52.9949 134.088 53.1583 134.405 53.3729L133.831 54.4369C133.495 54.2129 133.145 54.0589 132.781 53.9749C132.417 53.8909 132.053 53.8489 131.689 53.8489C131.101 53.8489 130.662 53.9469 130.373 54.1429C130.084 54.3296 129.939 54.5723 129.939 54.8709C129.939 55.1229 130.023 55.3189 130.191 55.4589C130.368 55.5896 130.592 55.6923 130.863 55.7669C131.143 55.8416 131.451 55.9069 131.787 55.9629C132.123 56.0096 132.459 56.0749 132.795 56.1589C133.131 56.2336 133.434 56.3409 133.705 56.4809C133.985 56.6209 134.209 56.8169 134.377 57.0689C134.554 57.3209 134.643 57.6569 134.643 58.0769C134.643 58.5249 134.512 58.9123 134.251 59.2389C133.99 59.5656 133.621 59.8223 133.145 60.0089C132.669 60.1863 132.1 60.2749 131.437 60.2749ZM136.519 60.1909V52.1129C136.519 51.3849 136.729 50.8063 137.149 50.3769C137.578 49.9383 138.185 49.7189 138.969 49.7189C139.258 49.7189 139.533 49.7563 139.795 49.8309C140.065 49.8963 140.294 50.0036 140.481 50.1529L140.075 51.1749C139.935 51.0629 139.776 50.9789 139.599 50.9229C139.421 50.8576 139.235 50.8249 139.039 50.8249C138.647 50.8249 138.348 50.9369 138.143 51.1609C137.937 51.3756 137.835 51.6976 137.835 52.1269V53.1209L137.863 53.7369V60.1909H136.519ZM135.259 53.8769V52.7709H139.991V53.8769H135.259ZM144.327 60.2749C143.58 60.2749 142.918 60.1116 142.339 59.7849C141.76 59.4583 141.303 59.0103 140.967 58.4409C140.631 57.8623 140.463 57.2089 140.463 56.4809C140.463 55.7436 140.631 55.0903 140.967 54.5209C141.303 53.9516 141.76 53.5083 142.339 53.1909C142.918 52.8643 143.58 52.7009 144.327 52.7009C145.064 52.7009 145.722 52.8643 146.301 53.1909C146.889 53.5083 147.346 53.9516 147.673 54.5209C148.009 55.0809 148.177 55.7343 148.177 56.4809C148.177 57.2183 148.009 57.8716 147.673 58.4409C147.346 59.0103 146.889 59.4583 146.301 59.7849C145.722 60.1116 145.064 60.2749 144.327 60.2749ZM144.327 59.0989C144.803 59.0989 145.228 58.9916 145.601 58.7769C145.984 58.5623 146.282 58.2589 146.497 57.8669C146.712 57.4656 146.819 57.0036 146.819 56.4809C146.819 55.9489 146.712 55.4916 146.497 55.1089C146.282 54.7169 145.984 54.4136 145.601 54.1989C145.228 53.9843 144.803 53.8769 144.327 53.8769C143.851 53.8769 143.426 53.9843 143.053 54.1989C142.68 54.4136 142.381 54.7169 142.157 55.1089C141.933 55.4916 141.821 55.9489 141.821 56.4809C141.821 57.0036 141.933 57.4656 142.157 57.8669C142.381 58.2589 142.68 58.5623 143.053 58.7769C143.426 58.9916 143.851 59.0989 144.327 59.0989ZM150.036 60.1909V52.7709H151.324V54.7869L151.198 54.2829C151.403 53.7696 151.748 53.3776 152.234 53.1069C152.719 52.8363 153.316 52.7009 154.026 52.7009V54.0029C153.97 53.9936 153.914 53.9889 153.858 53.9889C153.811 53.9889 153.764 53.9889 153.718 53.9889C152.999 53.9889 152.43 54.2036 152.01 54.6329C151.59 55.0623 151.38 55.6829 151.38 56.4949V60.1909H150.036ZM164.964 52.7009C165.562 52.7009 166.089 52.8176 166.546 53.0509C167.004 53.2843 167.358 53.6389 167.61 54.1149C167.872 54.5909 168.002 55.1929 168.002 55.9209V60.1909H166.658V56.0749C166.658 55.3563 166.49 54.8149 166.154 54.4509C165.818 54.0869 165.347 53.9049 164.74 53.9049C164.292 53.9049 163.9 53.9983 163.564 54.1849C163.228 54.3716 162.967 54.6469 162.78 55.0109C162.603 55.3749 162.514 55.8276 162.514 56.3689V60.1909H161.17V56.0749C161.17 55.3563 161.002 54.8149 160.666 54.4509C160.34 54.0869 159.868 53.9049 159.252 53.9049C158.814 53.9049 158.426 53.9983 158.09 54.1849C157.754 54.3716 157.493 54.6469 157.306 55.0109C157.12 55.3749 157.026 55.8276 157.026 56.3689V60.1909H155.682V52.7709H156.97V54.7449L156.76 54.2409C156.994 53.7556 157.353 53.3776 157.838 53.1069C158.324 52.8363 158.888 52.7009 159.532 52.7009C160.242 52.7009 160.853 52.8783 161.366 53.2329C161.88 53.5783 162.216 54.1056 162.374 54.8149L161.828 54.5909C162.052 54.0216 162.444 53.5643 163.004 53.2189C163.564 52.8736 164.218 52.7009 164.964 52.7009ZM175.081 60.1909V58.6229L175.011 58.3289V55.6549C175.011 55.0856 174.843 54.6469 174.507 54.3389C174.181 54.0216 173.686 53.8629 173.023 53.8629C172.585 53.8629 172.155 53.9376 171.735 54.0869C171.315 54.2269 170.961 54.4183 170.671 54.6609L170.111 53.6529C170.494 53.3449 170.951 53.1116 171.483 52.9529C172.025 52.7849 172.589 52.7009 173.177 52.7009C174.195 52.7009 174.979 52.9483 175.529 53.4429C176.08 53.9376 176.355 54.6936 176.355 55.7109V60.1909H175.081ZM172.645 60.2749C172.095 60.2749 171.609 60.1816 171.189 59.9949C170.779 59.8083 170.461 59.5516 170.237 59.2249C170.013 58.8889 169.901 58.5109 169.901 58.0909C169.901 57.6896 169.995 57.3256 170.181 56.9989C170.377 56.6723 170.69 56.4109 171.119 56.2149C171.558 56.0189 172.146 55.9209 172.883 55.9209H175.235V56.8869H172.939C172.267 56.8869 171.815 56.9989 171.581 57.2229C171.348 57.4469 171.231 57.7176 171.231 58.0349C171.231 58.3989 171.376 58.6929 171.665 58.9169C171.955 59.1316 172.356 59.2389 172.869 59.2389C173.373 59.2389 173.812 59.1269 174.185 58.9029C174.568 58.6789 174.843 58.3523 175.011 57.9229L175.277 58.8469C175.1 59.2856 174.787 59.6356 174.339 59.8969C173.891 60.1489 173.327 60.2749 172.645 60.2749ZM182.804 52.7009C183.411 52.7009 183.943 52.8176 184.4 53.0509C184.867 53.2843 185.231 53.6389 185.492 54.1149C185.754 54.5909 185.884 55.1929 185.884 55.9209V60.1909H184.54V56.0749C184.54 55.3563 184.363 54.8149 184.008 54.4509C183.663 54.0869 183.173 53.9049 182.538 53.9049C182.062 53.9049 181.647 53.9983 181.292 54.1849C180.938 54.3716 180.662 54.6469 180.466 55.0109C180.28 55.3749 180.186 55.8276 180.186 56.3689V60.1909H178.842V52.7709H180.13V54.7729L179.92 54.2409C180.163 53.7556 180.536 53.3776 181.04 53.1069C181.544 52.8363 182.132 52.7009 182.804 52.7009ZM191.438 60.2749C190.719 60.2749 190.075 60.1163 189.506 59.7989C188.946 59.4816 188.502 59.0383 188.176 58.4689C187.849 57.8996 187.686 57.2369 187.686 56.4809C187.686 55.7249 187.849 55.0669 188.176 54.5069C188.502 53.9376 188.946 53.4943 189.506 53.1769C190.075 52.8596 190.719 52.7009 191.438 52.7009C192.063 52.7009 192.628 52.8409 193.132 53.1209C193.636 53.4009 194.037 53.8209 194.336 54.3809C194.644 54.9409 194.798 55.6409 194.798 56.4809C194.798 57.3209 194.648 58.0209 194.35 58.5809C194.06 59.1409 193.664 59.5656 193.16 59.8549C192.656 60.1349 192.082 60.2749 191.438 60.2749ZM191.55 59.0989C192.016 59.0989 192.436 58.9916 192.81 58.7769C193.192 58.5623 193.491 58.2589 193.706 57.8669C193.93 57.4656 194.042 57.0036 194.042 56.4809C194.042 55.9489 193.93 55.4916 193.706 55.1089C193.491 54.7169 193.192 54.4136 192.81 54.1989C192.436 53.9843 192.016 53.8769 191.55 53.8769C191.074 53.8769 190.649 53.9843 190.276 54.1989C189.902 54.4136 189.604 54.7169 189.38 55.1089C189.156 55.4916 189.044 55.9489 189.044 56.4809C189.044 57.0036 189.156 57.4656 189.38 57.8669C189.604 58.2589 189.902 58.5623 190.276 58.7769C190.649 58.9916 191.074 59.0989 191.55 59.0989ZM194.084 60.1909V58.1889L194.168 56.4669L194.028 54.7449V49.8029H195.372V60.1909H194.084ZM201.093 60.2749C200.346 60.2749 199.683 60.1116 199.105 59.7849C198.526 59.4583 198.069 59.0103 197.733 58.4409C197.397 57.8623 197.229 57.2089 197.229 56.4809C197.229 55.7436 197.397 55.0903 197.733 54.5209C198.069 53.9516 198.526 53.5083 199.105 53.1909C199.683 52.8643 200.346 52.7009 201.093 52.7009C201.83 52.7009 202.488 52.8643 203.067 53.1909C203.655 53.5083 204.112 53.9516 204.439 54.5209C204.775 55.0809 204.943 55.7343 204.943 56.4809C204.943 57.2183 204.775 57.8716 204.439 58.4409C204.112 59.0103 203.655 59.4583 203.067 59.7849C202.488 60.1116 201.83 60.2749 201.093 60.2749ZM201.093 59.0989C201.569 59.0989 201.993 58.9916 202.367 58.7769C202.749 58.5623 203.048 58.2589 203.263 57.8669C203.477 57.4656 203.585 57.0036 203.585 56.4809C203.585 55.9489 203.477 55.4916 203.263 55.1089C203.048 54.7169 202.749 54.4136 202.367 54.1989C201.993 53.9843 201.569 53.8769 201.093 53.8769C200.617 53.8769 200.192 53.9843 199.819 54.1989C199.445 54.4136 199.147 54.7169 198.923 55.1089C198.699 55.4916 198.587 55.9489 198.587 56.4809C198.587 57.0036 198.699 57.4656 198.923 57.8669C199.147 58.2589 199.445 58.5623 199.819 58.7769C200.192 58.9916 200.617 59.0989 201.093 59.0989ZM210.757 60.1909V50.3909H211.905L218.387 58.4409H217.785V50.3909H219.185V60.1909H218.037L211.555 52.1409H212.157V60.1909H210.757ZM225.226 60.2749C224.433 60.2749 223.733 60.1116 223.126 59.7849C222.529 59.4583 222.062 59.0103 221.726 58.4409C221.4 57.8716 221.236 57.2183 221.236 56.4809C221.236 55.7436 221.395 55.0903 221.712 54.5209C222.039 53.9516 222.482 53.5083 223.042 53.1909C223.612 52.8643 224.251 52.7009 224.96 52.7009C225.679 52.7009 226.314 52.8596 226.864 53.1769C227.415 53.4943 227.844 53.9423 228.152 54.5209C228.47 55.0903 228.628 55.7576 228.628 56.5229C228.628 56.5789 228.624 56.6443 228.614 56.7189C228.614 56.7936 228.61 56.8636 228.6 56.9289H222.286V55.9629H227.9L227.354 56.2989C227.364 55.8229 227.266 55.3983 227.06 55.0249C226.855 54.6516 226.57 54.3623 226.206 54.1569C225.852 53.9423 225.436 53.8349 224.96 53.8349C224.494 53.8349 224.078 53.9423 223.714 54.1569C223.35 54.3623 223.066 54.6563 222.86 55.0389C222.655 55.4123 222.552 55.8416 222.552 56.3269V56.5509C222.552 57.0456 222.664 57.4889 222.888 57.8809C223.122 58.2636 223.444 58.5623 223.854 58.7769C224.265 58.9916 224.736 59.0989 225.268 59.0989C225.707 59.0989 226.104 59.0243 226.458 58.8749C226.822 58.7256 227.14 58.5016 227.41 58.2029L228.152 59.0709C227.816 59.4629 227.396 59.7616 226.892 59.9669C226.398 60.1723 225.842 60.2749 225.226 60.2749ZM233.743 62.9909C233.061 62.9909 232.399 62.8929 231.755 62.6969C231.12 62.5103 230.602 62.2396 230.201 61.8849L230.845 60.8489C231.19 61.1476 231.615 61.3809 232.119 61.5489C232.623 61.7263 233.15 61.8149 233.701 61.8149C234.578 61.8149 235.222 61.6096 235.633 61.1989C236.043 60.7883 236.249 60.1629 236.249 59.3229V57.7549L236.389 56.2849L236.319 54.8009V52.7709H237.593V59.1829C237.593 60.4896 237.266 61.4509 236.613 62.0669C235.959 62.6829 235.003 62.9909 233.743 62.9909ZM233.575 59.8829C232.856 59.8829 232.212 59.7336 231.643 59.4349C231.083 59.1269 230.635 58.7023 230.299 58.1609C229.972 57.6196 229.809 56.9943 229.809 56.2849C229.809 55.5663 229.972 54.9409 230.299 54.4089C230.635 53.8676 231.083 53.4476 231.643 53.1489C232.212 52.8503 232.856 52.7009 233.575 52.7009C234.209 52.7009 234.788 52.8316 235.311 53.0929C235.833 53.3449 236.249 53.7369 236.557 54.2689C236.874 54.8009 237.033 55.4729 237.033 56.2849C237.033 57.0876 236.874 57.7549 236.557 58.2869C236.249 58.8189 235.833 59.2203 235.311 59.4909C234.788 59.7523 234.209 59.8829 233.575 59.8829ZM233.729 58.7069C234.223 58.7069 234.662 58.6043 235.045 58.3989C235.427 58.1936 235.726 57.9089 235.941 57.5449C236.165 57.1809 236.277 56.7609 236.277 56.2849C236.277 55.8089 236.165 55.3889 235.941 55.0249C235.726 54.6609 235.427 54.3809 235.045 54.1849C234.662 53.9796 234.223 53.8769 233.729 53.8769C233.234 53.8769 232.791 53.9796 232.399 54.1849C232.016 54.3809 231.713 54.6609 231.489 55.0249C231.274 55.3889 231.167 55.8089 231.167 56.2849C231.167 56.7609 231.274 57.1809 231.489 57.5449C231.713 57.9089 232.016 58.1936 232.399 58.3989C232.791 58.6043 233.234 58.7069 233.729 58.7069ZM243.339 60.2749C242.592 60.2749 241.929 60.1116 241.351 59.7849C240.772 59.4583 240.315 59.0103 239.979 58.4409C239.643 57.8623 239.475 57.2089 239.475 56.4809C239.475 55.7436 239.643 55.0903 239.979 54.5209C240.315 53.9516 240.772 53.5083 241.351 53.1909C241.929 52.8643 242.592 52.7009 243.339 52.7009C244.076 52.7009 244.734 52.8643 245.313 53.1909C245.901 53.5083 246.358 53.9516 246.685 54.5209C247.021 55.0809 247.189 55.7343 247.189 56.4809C247.189 57.2183 247.021 57.8716 246.685 58.4409C246.358 59.0103 245.901 59.4583 245.313 59.7849C244.734 60.1116 244.076 60.2749 243.339 60.2749ZM243.339 59.0989C243.815 59.0989 244.239 58.9916 244.613 58.7769C244.995 58.5623 245.294 58.2589 245.509 57.8669C245.723 57.4656 245.831 57.0036 245.831 56.4809C245.831 55.9489 245.723 55.4916 245.509 55.1089C245.294 54.7169 244.995 54.4136 244.613 54.1989C244.239 53.9843 243.815 53.8769 243.339 53.8769C242.863 53.8769 242.438 53.9843 242.065 54.1989C241.691 54.4136 241.393 54.7169 241.169 55.1089C240.945 55.4916 240.833 55.9489 240.833 56.4809C240.833 57.0036 240.945 57.4656 241.169 57.8669C241.393 58.2589 241.691 58.5623 242.065 58.7769C242.438 58.9916 242.863 59.0989 243.339 59.0989ZM242.275 51.6929L244.179 49.8729H245.887L243.535 51.6929H242.275ZM252.281 60.2749C251.525 60.2749 250.849 60.1116 250.251 59.7849C249.663 59.4583 249.201 59.0103 248.865 58.4409C248.529 57.8716 248.361 57.2183 248.361 56.4809C248.361 55.7436 248.529 55.0903 248.865 54.5209C249.201 53.9516 249.663 53.5083 250.251 53.1909C250.849 52.8643 251.525 52.7009 252.281 52.7009C252.953 52.7009 253.551 52.8363 254.073 53.1069C254.605 53.3683 255.016 53.7603 255.305 54.2829L254.283 54.9409C254.041 54.5769 253.742 54.3109 253.387 54.1429C253.042 53.9656 252.669 53.8769 252.267 53.8769C251.782 53.8769 251.348 53.9843 250.965 54.1989C250.583 54.4136 250.279 54.7169 250.055 55.1089C249.831 55.4916 249.719 55.9489 249.719 56.4809C249.719 57.0129 249.831 57.4749 250.055 57.8669C250.279 58.2589 250.583 58.5623 250.965 58.7769C251.348 58.9916 251.782 59.0989 252.267 59.0989C252.669 59.0989 253.042 59.0149 253.387 58.8469C253.742 58.6696 254.041 58.3989 254.283 58.0349L255.305 58.6789C255.016 59.1923 254.605 59.5889 254.073 59.8689C253.551 60.1396 252.953 60.2749 252.281 60.2749ZM256.95 60.1909V52.7709H258.294V60.1909H256.95ZM257.622 51.3429C257.36 51.3429 257.141 51.2589 256.964 51.0909C256.796 50.9229 256.712 50.7176 256.712 50.4749C256.712 50.2229 256.796 50.0129 256.964 49.8449C257.141 49.6769 257.36 49.5929 257.622 49.5929C257.883 49.5929 258.098 49.6769 258.266 49.8449C258.443 50.0036 258.532 50.2043 258.532 50.4469C258.532 50.6989 258.448 50.9136 258.28 51.0909C258.112 51.2589 257.892 51.3429 257.622 51.3429ZM264.038 60.2749C263.291 60.2749 262.629 60.1116 262.05 59.7849C261.471 59.4583 261.014 59.0103 260.678 58.4409C260.342 57.8623 260.174 57.2089 260.174 56.4809C260.174 55.7436 260.342 55.0903 260.678 54.5209C261.014 53.9516 261.471 53.5083 262.05 53.1909C262.629 52.8643 263.291 52.7009 264.038 52.7009C264.775 52.7009 265.433 52.8643 266.012 53.1909C266.6 53.5083 267.057 53.9516 267.384 54.5209C267.72 55.0809 267.888 55.7343 267.888 56.4809C267.888 57.2183 267.72 57.8716 267.384 58.4409C267.057 59.0103 266.6 59.4583 266.012 59.7849C265.433 60.1116 264.775 60.2749 264.038 60.2749ZM264.038 59.0989C264.514 59.0989 264.939 58.9916 265.312 58.7769C265.695 58.5623 265.993 58.2589 266.208 57.8669C266.423 57.4656 266.53 57.0036 266.53 56.4809C266.53 55.9489 266.423 55.4916 266.208 55.1089C265.993 54.7169 265.695 54.4136 265.312 54.1989C264.939 53.9843 264.514 53.8769 264.038 53.8769C263.562 53.8769 263.137 53.9843 262.764 54.1989C262.391 54.4136 262.092 54.7169 261.868 55.1089C261.644 55.4916 261.532 55.9489 261.532 56.4809C261.532 57.0036 261.644 57.4656 261.868 57.8669C262.092 58.2589 262.391 58.5623 262.764 58.7769C263.137 58.9916 263.562 59.0989 264.038 59.0989ZM271.875 60.2749C271.259 60.2749 270.671 60.1909 270.111 60.0229C269.56 59.8549 269.126 59.6496 268.809 59.4069L269.369 58.3429C269.686 58.5576 270.078 58.7396 270.545 58.8889C271.011 59.0383 271.487 59.1129 271.973 59.1129C272.598 59.1129 273.046 59.0243 273.317 58.8469C273.597 58.6696 273.737 58.4223 273.737 58.1049C273.737 57.8716 273.653 57.6896 273.485 57.5589C273.317 57.4283 273.093 57.3303 272.813 57.2649C272.542 57.1996 272.239 57.1436 271.903 57.0969C271.567 57.0409 271.231 56.9756 270.895 56.9009C270.559 56.8169 270.251 56.7049 269.971 56.5649C269.691 56.4156 269.467 56.2149 269.299 55.9629C269.131 55.7016 269.047 55.3563 269.047 54.9269C269.047 54.4789 269.173 54.0869 269.425 53.7509C269.677 53.4149 270.031 53.1583 270.489 52.9809C270.955 52.7943 271.506 52.7009 272.141 52.7009C272.626 52.7009 273.116 52.7616 273.611 52.8829C274.115 52.9949 274.525 53.1583 274.843 53.3729L274.269 54.4369C273.933 54.2129 273.583 54.0589 273.219 53.9749C272.855 53.8909 272.491 53.8489 272.127 53.8489C271.539 53.8489 271.1 53.9469 270.811 54.1429C270.521 54.3296 270.377 54.5723 270.377 54.8709C270.377 55.1229 270.461 55.3189 270.629 55.4589C270.806 55.5896 271.03 55.6923 271.301 55.7669C271.581 55.8416 271.889 55.9069 272.225 55.9629C272.561 56.0096 272.897 56.0749 273.233 56.1589C273.569 56.2336 273.872 56.3409 274.143 56.4809C274.423 56.6209 274.647 56.8169 274.815 57.0689C274.992 57.3209 275.081 57.6569 275.081 58.0769C275.081 58.5249 274.95 58.9123 274.689 59.2389C274.427 59.5656 274.059 59.8223 273.583 60.0089C273.107 60.1863 272.537 60.2749 271.875 60.2749ZM280.716 60.1909V50.3909H284.846C285.891 50.3909 286.811 50.5963 287.604 51.0069C288.407 51.4176 289.027 51.9916 289.466 52.7289C289.914 53.4663 290.138 54.3203 290.138 55.2909C290.138 56.2616 289.914 57.1156 289.466 57.8529C289.027 58.5903 288.407 59.1643 287.604 59.5749C286.811 59.9856 285.891 60.1909 284.846 60.1909H280.716ZM282.116 58.9729H284.762C285.574 58.9729 286.274 58.8189 286.862 58.5109C287.459 58.2029 287.921 57.7736 288.248 57.2229C288.575 56.6629 288.738 56.0189 288.738 55.2909C288.738 54.5536 288.575 53.9096 288.248 53.3589C287.921 52.8083 287.459 52.3789 286.862 52.0709C286.274 51.7629 285.574 51.6089 284.762 51.6089H282.116V58.9729ZM292.087 60.1909V52.7709H293.431V60.1909H292.087ZM292.759 51.3429C292.497 51.3429 292.278 51.2589 292.101 51.0909C291.933 50.9229 291.849 50.7176 291.849 50.4749C291.849 50.2229 291.933 50.0129 292.101 49.8449C292.278 49.6769 292.497 49.5929 292.759 49.5929C293.02 49.5929 293.235 49.6769 293.403 49.8449C293.58 50.0036 293.669 50.2043 293.669 50.4469C293.669 50.6989 293.585 50.9136 293.417 51.0909C293.249 51.2589 293.029 51.3429 292.759 51.3429ZM299.245 62.9909C298.563 62.9909 297.901 62.8929 297.257 62.6969C296.622 62.5103 296.104 62.2396 295.703 61.8849L296.347 60.8489C296.692 61.1476 297.117 61.3809 297.621 61.5489C298.125 61.7263 298.652 61.8149 299.203 61.8149C300.08 61.8149 300.724 61.6096 301.135 61.1989C301.545 60.7883 301.751 60.1629 301.751 59.3229V57.7549L301.891 56.2849L301.821 54.8009V52.7709H303.095V59.1829C303.095 60.4896 302.768 61.4509 302.115 62.0669C301.461 62.6829 300.505 62.9909 299.245 62.9909ZM299.077 59.8829C298.358 59.8829 297.714 59.7336 297.145 59.4349C296.585 59.1269 296.137 58.7023 295.801 58.1609C295.474 57.6196 295.311 56.9943 295.311 56.2849C295.311 55.5663 295.474 54.9409 295.801 54.4089C296.137 53.8676 296.585 53.4476 297.145 53.1489C297.714 52.8503 298.358 52.7009 299.077 52.7009C299.711 52.7009 300.29 52.8316 300.813 53.0929C301.335 53.3449 301.751 53.7369 302.059 54.2689C302.376 54.8009 302.535 55.4729 302.535 56.2849C302.535 57.0876 302.376 57.7549 302.059 58.2869C301.751 58.8189 301.335 59.2203 300.813 59.4909C300.29 59.7523 299.711 59.8829 299.077 59.8829ZM299.231 58.7069C299.725 58.7069 300.164 58.6043 300.547 58.3989C300.929 58.1936 301.228 57.9089 301.443 57.5449C301.667 57.1809 301.779 56.7609 301.779 56.2849C301.779 55.8089 301.667 55.3889 301.443 55.0249C301.228 54.6609 300.929 54.3809 300.547 54.1849C300.164 53.9796 299.725 53.8769 299.231 53.8769C298.736 53.8769 298.293 53.9796 297.901 54.1849C297.518 54.3809 297.215 54.6609 296.991 55.0249C296.776 55.3889 296.669 55.8089 296.669 56.2849C296.669 56.7609 296.776 57.1809 296.991 57.5449C297.215 57.9089 297.518 58.1936 297.901 58.3989C298.293 58.6043 298.736 58.7069 299.231 58.7069ZM305.663 60.1909V52.7709H307.007V60.1909H305.663ZM306.335 51.3429C306.073 51.3429 305.854 51.2589 305.677 51.0909C305.509 50.9229 305.425 50.7176 305.425 50.4749C305.425 50.2229 305.509 50.0129 305.677 49.8449C305.854 49.6769 306.073 49.5929 306.335 49.5929C306.596 49.5929 306.811 49.6769 306.979 49.8449C307.156 50.0036 307.245 50.2043 307.245 50.4469C307.245 50.6989 307.161 50.9136 306.993 51.0909C306.825 51.2589 306.605 51.3429 306.335 51.3429ZM312.121 60.2749C311.374 60.2749 310.795 60.0743 310.385 59.6729C309.974 59.2716 309.769 58.6976 309.769 57.9509V51.1469H311.113V57.8949C311.113 58.2963 311.211 58.6043 311.407 58.8189C311.612 59.0336 311.901 59.1409 312.275 59.1409C312.695 59.1409 313.045 59.0243 313.325 58.7909L313.745 59.7569C313.539 59.9343 313.292 60.0649 313.003 60.1489C312.723 60.2329 312.429 60.2749 312.121 60.2749ZM308.509 53.8769V52.7709H313.241V53.8769H308.509ZM319.976 60.1909V58.6229L319.906 58.3289V55.6549C319.906 55.0856 319.738 54.6469 319.402 54.3389C319.075 54.0216 318.58 53.8629 317.918 53.8629C317.479 53.8629 317.05 53.9376 316.63 54.0869C316.21 54.2269 315.855 54.4183 315.566 54.6609L315.006 53.6529C315.388 53.3449 315.846 53.1116 316.378 52.9529C316.919 52.7849 317.484 52.7009 318.072 52.7009C319.089 52.7009 319.873 52.9483 320.424 53.4429C320.974 53.9376 321.25 54.6936 321.25 55.7109V60.1909H319.976ZM317.54 60.2749C316.989 60.2749 316.504 60.1816 316.084 59.9949C315.673 59.8083 315.356 59.5516 315.132 59.2249C314.908 58.8889 314.796 58.5109 314.796 58.0909C314.796 57.6896 314.889 57.3256 315.076 56.9989C315.272 56.6723 315.584 56.4109 316.014 56.2149C316.452 56.0189 317.04 55.9209 317.778 55.9209H320.13V56.8869H317.834C317.162 56.8869 316.709 56.9989 316.476 57.2229C316.242 57.4469 316.126 57.7176 316.126 58.0349C316.126 58.3989 316.27 58.6929 316.56 58.9169C316.849 59.1316 317.25 59.2389 317.764 59.2389C318.268 59.2389 318.706 59.1269 319.08 58.9029C319.462 58.6789 319.738 58.3523 319.906 57.9229L320.172 58.8469C319.994 59.2856 319.682 59.6356 319.234 59.8969C318.786 60.1489 318.221 60.2749 317.54 60.2749ZM323.737 60.1909V52.7709H325.081V60.1909H323.737ZM324.409 51.3429C324.148 51.3429 323.928 51.2589 323.751 51.0909C323.583 50.9229 323.499 50.7176 323.499 50.4749C323.499 50.2229 323.583 50.0129 323.751 49.8449C323.928 49.6769 324.148 49.5929 324.409 49.5929C324.67 49.5929 324.885 49.6769 325.053 49.8449C325.23 50.0036 325.319 50.2043 325.319 50.4469C325.319 50.6989 325.235 50.9136 325.067 51.0909C324.899 51.2589 324.68 51.3429 324.409 51.3429ZM329.775 60.2749C329.159 60.2749 328.571 60.1909 328.011 60.0229C327.46 59.8549 327.026 59.6496 326.709 59.4069L327.269 58.3429C327.586 58.5576 327.978 58.7396 328.445 58.8889C328.912 59.0383 329.388 59.1129 329.873 59.1129C330.498 59.1129 330.946 59.0243 331.217 58.8469C331.497 58.6696 331.637 58.4223 331.637 58.1049C331.637 57.8716 331.553 57.6896 331.385 57.5589C331.217 57.4283 330.993 57.3303 330.713 57.2649C330.442 57.1996 330.139 57.1436 329.803 57.0969C329.467 57.0409 329.131 56.9756 328.795 56.9009C328.459 56.8169 328.151 56.7049 327.871 56.5649C327.591 56.4156 327.367 56.2149 327.199 55.9629C327.031 55.7016 326.947 55.3563 326.947 54.9269C326.947 54.4789 327.073 54.0869 327.325 53.7509C327.577 53.4149 327.932 53.1583 328.389 52.9809C328.856 52.7943 329.406 52.7009 330.041 52.7009C330.526 52.7009 331.016 52.7616 331.511 52.8829C332.015 52.9949 332.426 53.1583 332.743 53.3729L332.169 54.4369C331.833 54.2129 331.483 54.0589 331.119 53.9749C330.755 53.8909 330.391 53.8489 330.027 53.8489C329.439 53.8489 329 53.9469 328.711 54.1429C328.422 54.3296 328.277 54.5723 328.277 54.8709C328.277 55.1229 328.361 55.3189 328.529 55.4589C328.706 55.5896 328.93 55.6923 329.201 55.7669C329.481 55.8416 329.789 55.9069 330.125 55.9629C330.461 56.0096 330.797 56.0749 331.133 56.1589C331.469 56.2336 331.772 56.3409 332.043 56.4809C332.323 56.6209 332.547 56.8169 332.715 57.0689C332.892 57.3209 332.981 57.6569 332.981 58.0769C332.981 58.5249 332.85 58.9123 332.589 59.2389C332.328 59.5656 331.959 59.8223 331.483 60.0089C331.007 60.1863 330.438 60.2749 329.775 60.2749Z" fill="black"/>
<defs>
<filter id="filter0_d_86_148" x="0" y="0" width="422" height="139" filterUnits="userSpaceOnUse" color-interpolation-filters="sRGB">
<feFlood flood-opacity="0" result="BackgroundImageFix"/>
<feColorMatrix in="SourceAlpha" type="matrix" values="0 0 0 0 0 0 0 0 0 0 0 0 0 0 0 0 0 0 127 0" result="hardAlpha"/>
<feOffset dy="15"/>
<feGaussianBlur stdDeviation="22.5"/>
<feColorMatrix type="matrix" values="0 0 0 0 0.301961 0 0 0 0 0.243137 0 0 0 0 0.243137 0 0 0 0.29 0"/>
<feBlend mode="normal" in2="BackgroundImageFix" result="effect1_dropShadow_86_148"/>
<feBlend mode="normal" in="SourceGraphic" in2="effect1_dropShadow_86_148" result="shape"/>
</filter>
<linearGradient id="paint0_linear_86_148" x1="71" y1="42" x2="71" y2="68" gradientUnits="userSpaceOnUse">
<stop stop-color="#61DA17"/>
<stop offset="1" stop-color="#D3F13A"/>
</linearGradient>
</defs>
</svg>
