<svg width="383" height="164" viewBox="0 0 383 164" fill="none" xmlns="http://www.w3.org/2000/svg">
<g filter="url(#filter0_d_86_155)">
<path d="M330 30H75C58.4315 30 45 36.0605 45 43.5366V90.4634C45 97.9395 58.4315 104 75 104H330C346.569 104 360 97.9395 360 90.4634V43.5366C360 36.0605 346.569 30 330 30Z" fill="white"/>
</g>
<path d="M99 67C99 58.7157 92.2843 52 84 52C75.7157 52 69 58.7157 69 67C69 75.2843 75.7157 82 84 82C92.2843 82 99 75.2843 99 67Z" fill="url(#paint0_linear_86_155)"/>
<path d="M79.2869 67.989L81.4196 69.9375" stroke="white" stroke-width="2" stroke-linecap="round"/>
<path d="M88.3247 63.4209L81.658 70.0876" stroke="white" stroke-width="2" stroke-linecap="round"/>
<path d="M121.47 72V62.2H125.6C126.645 62.2 127.565 62.4053 128.358 62.816C129.161 63.2267 129.781 63.8007 130.22 64.538C130.668 65.2753 130.892 66.1293 130.892 67.1C130.892 68.0707 130.668 68.9247 130.22 69.662C129.781 70.3993 129.161 70.9733 128.358 71.384C127.565 71.7947 126.645 72 125.6 72H121.47ZM122.87 70.782H125.516C126.328 70.782 127.028 70.628 127.616 70.32C128.213 70.012 128.675 69.5827 129.002 69.032C129.329 68.472 129.492 67.828 129.492 67.1C129.492 66.3627 129.329 65.7187 129.002 65.168C128.675 64.6173 128.213 64.188 127.616 63.88C127.028 63.572 126.328 63.418 125.516 63.418H122.87V70.782ZM136.144 72.084C135.351 72.084 134.651 71.9207 134.044 71.594C133.447 71.2673 132.98 70.8193 132.644 70.25C132.318 69.6807 132.154 69.0273 132.154 68.29C132.154 67.5527 132.313 66.8993 132.63 66.33C132.957 65.7607 133.4 65.3173 133.96 65C134.53 64.6733 135.169 64.51 135.878 64.51C136.597 64.51 137.232 64.6687 137.782 64.986C138.333 65.3033 138.762 65.7513 139.07 66.33C139.388 66.8993 139.546 67.5667 139.546 68.332C139.546 68.388 139.542 68.4533 139.532 68.528C139.532 68.6027 139.528 68.6727 139.518 68.738H133.204V67.772H138.818L138.272 68.108C138.282 67.632 138.184 67.2073 137.978 66.834C137.773 66.4607 137.488 66.1713 137.124 65.966C136.77 65.7513 136.354 65.644 135.878 65.644C135.412 65.644 134.996 65.7513 134.632 65.966C134.268 66.1713 133.984 66.4653 133.778 66.848C133.573 67.2213 133.47 67.6507 133.47 68.136V68.36C133.47 68.8547 133.582 69.298 133.806 69.69C134.04 70.0727 134.362 70.3713 134.772 70.586C135.183 70.8007 135.654 70.908 136.186 70.908C136.625 70.908 137.022 70.8333 137.376 70.684C137.74 70.5347 138.058 70.3107 138.328 70.012L139.07 70.88C138.734 71.272 138.314 71.5707 137.81 71.776C137.316 71.9813 136.76 72.084 136.144 72.084ZM143.541 72.084C142.925 72.084 142.337 72 141.777 71.832C141.226 71.664 140.792 71.4587 140.475 71.216L141.035 70.152C141.352 70.3667 141.744 70.5487 142.211 70.698C142.677 70.8473 143.153 70.922 143.639 70.922C144.264 70.922 144.712 70.8333 144.983 70.656C145.263 70.4787 145.403 70.2313 145.403 69.914C145.403 69.6807 145.319 69.4987 145.151 69.368C144.983 69.2373 144.759 69.1393 144.479 69.074C144.208 69.0087 143.905 68.9527 143.569 68.906C143.233 68.85 142.897 68.7847 142.561 68.71C142.225 68.626 141.917 68.514 141.637 68.374C141.357 68.2247 141.133 68.024 140.965 67.772C140.797 67.5107 140.713 67.1653 140.713 66.736C140.713 66.288 140.839 65.896 141.091 65.56C141.343 65.224 141.697 64.9673 142.155 64.79C142.621 64.6033 143.172 64.51 143.807 64.51C144.292 64.51 144.782 64.5707 145.277 64.692C145.781 64.804 146.191 64.9673 146.509 65.182L145.935 66.246C145.599 66.022 145.249 65.868 144.885 65.784C144.521 65.7 144.157 65.658 143.793 65.658C143.205 65.658 142.766 65.756 142.477 65.952C142.187 66.1387 142.043 66.3813 142.043 66.68C142.043 66.932 142.127 67.128 142.295 67.268C142.472 67.3987 142.696 67.5013 142.967 67.576C143.247 67.6507 143.555 67.716 143.891 67.772C144.227 67.8187 144.563 67.884 144.899 67.968C145.235 68.0427 145.538 68.15 145.809 68.29C146.089 68.43 146.313 68.626 146.481 68.878C146.658 69.13 146.747 69.466 146.747 69.886C146.747 70.334 146.616 70.7213 146.355 71.048C146.093 71.3747 145.725 71.6313 145.249 71.818C144.773 71.9953 144.203 72.084 143.541 72.084ZM148.426 72V64.58H149.77V72H148.426ZM149.098 63.152C148.837 63.152 148.618 63.068 148.44 62.9C148.272 62.732 148.188 62.5267 148.188 62.284C148.188 62.032 148.272 61.822 148.44 61.654C148.618 61.486 148.837 61.402 149.098 61.402C149.36 61.402 149.574 61.486 149.742 61.654C149.92 61.8127 150.008 62.0133 150.008 62.256C150.008 62.508 149.924 62.7227 149.756 62.9C149.588 63.068 149.369 63.152 149.098 63.152ZM155.585 74.8C154.903 74.8 154.241 74.702 153.597 74.506C152.962 74.3193 152.444 74.0487 152.043 73.694L152.687 72.658C153.032 72.9567 153.457 73.19 153.961 73.358C154.465 73.5353 154.992 73.624 155.543 73.624C156.42 73.624 157.064 73.4187 157.475 73.008C157.885 72.5973 158.091 71.972 158.091 71.132V69.564L158.231 68.094L158.161 66.61V64.58H159.435V70.992C159.435 72.2987 159.108 73.26 158.454 73.876C157.801 74.492 156.845 74.8 155.585 74.8ZM155.417 71.692C154.698 71.692 154.054 71.5427 153.485 71.244C152.925 70.936 152.477 70.5113 152.141 69.97C151.814 69.4287 151.651 68.8033 151.651 68.094C151.651 67.3753 151.814 66.75 152.141 66.218C152.477 65.6767 152.925 65.2567 153.485 64.958C154.054 64.6593 154.698 64.51 155.417 64.51C156.051 64.51 156.63 64.6407 157.153 64.902C157.675 65.154 158.091 65.546 158.399 66.078C158.716 66.61 158.875 67.282 158.875 68.094C158.875 68.8967 158.716 69.564 158.399 70.096C158.091 70.628 157.675 71.0293 157.153 71.3C156.63 71.5613 156.051 71.692 155.417 71.692ZM155.571 70.516C156.065 70.516 156.504 70.4133 156.887 70.208C157.269 70.0027 157.568 69.718 157.783 69.354C158.007 68.99 158.119 68.57 158.119 68.094C158.119 67.618 158.007 67.198 157.783 66.834C157.568 66.47 157.269 66.19 156.887 65.994C156.504 65.7887 156.065 65.686 155.571 65.686C155.076 65.686 154.633 65.7887 154.241 65.994C153.858 66.19 153.555 66.47 153.331 66.834C153.116 67.198 153.009 67.618 153.009 68.094C153.009 68.57 153.116 68.99 153.331 69.354C153.555 69.718 153.858 70.0027 154.241 70.208C154.633 70.4133 155.076 70.516 155.571 70.516ZM165.965 64.51C166.571 64.51 167.103 64.6267 167.561 64.86C168.027 65.0933 168.391 65.448 168.653 65.924C168.914 66.4 169.045 67.002 169.045 67.73V72H167.701V67.884C167.701 67.1653 167.523 66.624 167.169 66.26C166.823 65.896 166.333 65.714 165.699 65.714C165.223 65.714 164.807 65.8073 164.453 65.994C164.098 66.1807 163.823 66.456 163.627 66.82C163.44 67.184 163.347 67.6367 163.347 68.178V72H162.003V64.58H163.291V66.582L163.081 66.05C163.323 65.5647 163.697 65.1867 164.201 64.916C164.705 64.6453 165.293 64.51 165.965 64.51ZM178.358 72.084C177.639 72.084 176.995 71.9253 176.426 71.608C175.866 71.2907 175.422 70.8473 175.096 70.278C174.769 69.7087 174.606 69.046 174.606 68.29C174.606 67.534 174.769 66.876 175.096 66.316C175.422 65.7467 175.866 65.3033 176.426 64.986C176.995 64.6687 177.639 64.51 178.358 64.51C178.983 64.51 179.548 64.65 180.052 64.93C180.556 65.21 180.957 65.63 181.256 66.19C181.564 66.75 181.718 67.45 181.718 68.29C181.718 69.13 181.568 69.83 181.27 70.39C180.98 70.95 180.584 71.3747 180.08 71.664C179.576 71.944 179.002 72.084 178.358 72.084ZM178.47 70.908C178.936 70.908 179.356 70.8007 179.73 70.586C180.112 70.3713 180.411 70.068 180.626 69.676C180.85 69.2747 180.962 68.8127 180.962 68.29C180.962 67.758 180.85 67.3007 180.626 66.918C180.411 66.526 180.112 66.2227 179.73 66.008C179.356 65.7933 178.936 65.686 178.47 65.686C177.994 65.686 177.569 65.7933 177.196 66.008C176.822 66.2227 176.524 66.526 176.3 66.918C176.076 67.3007 175.964 67.758 175.964 68.29C175.964 68.8127 176.076 69.2747 176.3 69.676C176.524 70.068 176.822 70.3713 177.196 70.586C177.569 70.8007 177.994 70.908 178.47 70.908ZM181.004 72V69.998L181.088 68.276L180.948 66.554V61.612H182.292V72H181.004ZM188.139 72.084C187.345 72.084 186.645 71.9207 186.039 71.594C185.441 71.2673 184.975 70.8193 184.639 70.25C184.312 69.6807 184.149 69.0273 184.149 68.29C184.149 67.5527 184.307 66.8993 184.625 66.33C184.951 65.7607 185.395 65.3173 185.955 65C186.524 64.6733 187.163 64.51 187.873 64.51C188.591 64.51 189.226 64.6687 189.777 64.986C190.327 65.3033 190.757 65.7513 191.065 66.33C191.382 66.8993 191.541 67.5667 191.541 68.332C191.541 68.388 191.536 68.4533 191.527 68.528C191.527 68.6027 191.522 68.6727 191.513 68.738H185.199V67.772H190.813L190.267 68.108C190.276 67.632 190.178 67.2073 189.973 66.834C189.767 66.4607 189.483 66.1713 189.119 65.966C188.764 65.7513 188.349 65.644 187.873 65.644C187.406 65.644 186.991 65.7513 186.627 65.966C186.263 66.1713 185.978 66.4653 185.773 66.848C185.567 67.2213 185.465 67.6507 185.465 68.136V68.36C185.465 68.8547 185.577 69.298 185.801 69.69C186.034 70.0727 186.356 70.3713 186.767 70.586C187.177 70.8007 187.649 70.908 188.181 70.908C188.619 70.908 189.016 70.8333 189.371 70.684C189.735 70.5347 190.052 70.3107 190.323 70.012L191.065 70.88C190.729 71.272 190.309 71.5707 189.805 71.776C189.31 71.9813 188.755 72.084 188.139 72.084ZM197.363 72V62.2H198.763V72H197.363ZM205.463 64.51C206.069 64.51 206.601 64.6267 207.059 64.86C207.525 65.0933 207.889 65.448 208.151 65.924C208.412 66.4 208.543 67.002 208.543 67.73V72H207.199V67.884C207.199 67.1653 207.021 66.624 206.667 66.26C206.321 65.896 205.831 65.714 205.197 65.714C204.721 65.714 204.305 65.8073 203.951 65.994C203.596 66.1807 203.321 66.456 203.125 66.82C202.938 67.184 202.845 67.6367 202.845 68.178V72H201.501V64.58H202.789V66.582L202.579 66.05C202.821 65.5647 203.195 65.1867 203.699 64.916C204.203 64.6453 204.791 64.51 205.463 64.51ZM213.578 72.084C212.831 72.084 212.253 71.8833 211.842 71.482C211.431 71.0807 211.226 70.5067 211.226 69.76V62.956H212.57V69.704C212.57 70.1053 212.668 70.4133 212.864 70.628C213.069 70.8427 213.359 70.95 213.732 70.95C214.152 70.95 214.502 70.8333 214.782 70.6L215.202 71.566C214.997 71.7433 214.749 71.874 214.46 71.958C214.18 72.042 213.886 72.084 213.578 72.084ZM209.966 65.686V64.58H214.698V65.686H209.966ZM219.885 72.084C219.091 72.084 218.391 71.9207 217.785 71.594C217.187 71.2673 216.721 70.8193 216.385 70.25C216.058 69.6807 215.895 69.0273 215.895 68.29C215.895 67.5527 216.053 66.8993 216.371 66.33C216.697 65.7607 217.141 65.3173 217.701 65C218.27 64.6733 218.909 64.51 219.619 64.51C220.337 64.51 220.972 64.6687 221.523 64.986C222.073 65.3033 222.503 65.7513 222.811 66.33C223.128 66.8993 223.287 67.5667 223.287 68.332C223.287 68.388 223.282 68.4533 223.273 68.528C223.273 68.6027 223.268 68.6727 223.259 68.738H216.945V67.772H222.559L222.013 68.108C222.022 67.632 221.924 67.2073 221.719 66.834C221.513 66.4607 221.229 66.1713 220.865 65.966C220.51 65.7513 220.095 65.644 219.619 65.644C219.152 65.644 218.737 65.7513 218.373 65.966C218.009 66.1713 217.724 66.4653 217.519 66.848C217.313 67.2213 217.211 67.6507 217.211 68.136V68.36C217.211 68.8547 217.323 69.298 217.547 69.69C217.78 70.0727 218.102 70.3713 218.513 70.586C218.923 70.8007 219.395 70.908 219.927 70.908C220.365 70.908 220.762 70.8333 221.117 70.684C221.481 70.5347 221.798 70.3107 222.069 70.012L222.811 70.88C222.475 71.272 222.055 71.5707 221.551 71.776C221.056 71.9813 220.501 72.084 219.885 72.084ZM225.153 72V64.58H226.441V66.596L226.315 66.092C226.52 65.5787 226.866 65.1867 227.351 64.916C227.836 64.6453 228.434 64.51 229.143 64.51V65.812C229.087 65.8027 229.031 65.798 228.975 65.798C228.928 65.798 228.882 65.798 228.835 65.798C228.116 65.798 227.547 66.0127 227.127 66.442C226.707 66.8713 226.497 67.492 226.497 68.304V72H225.153ZM231.091 72V63.922C231.091 63.194 231.301 62.6153 231.721 62.186C232.15 61.7473 232.757 61.528 233.541 61.528C233.83 61.528 234.106 61.5653 234.367 61.64C234.638 61.7053 234.866 61.8127 235.053 61.962L234.647 62.984C234.507 62.872 234.348 62.788 234.171 62.732C233.994 62.6667 233.807 62.634 233.611 62.634C233.219 62.634 232.92 62.746 232.715 62.97C232.51 63.1847 232.407 63.5067 232.407 63.936V64.93L232.435 65.546V72H231.091ZM229.831 65.686V64.58H234.563V65.686H229.831ZM240.3 72V70.432L240.23 70.138V67.464C240.23 66.8947 240.062 66.456 239.726 66.148C239.399 65.8307 238.905 65.672 238.242 65.672C237.803 65.672 237.374 65.7467 236.954 65.896C236.534 66.036 236.179 66.2273 235.89 66.47L235.33 65.462C235.713 65.154 236.17 64.9207 236.702 64.762C237.243 64.594 237.808 64.51 238.396 64.51C239.413 64.51 240.197 64.7573 240.748 65.252C241.299 65.7467 241.574 66.5027 241.574 67.52V72H240.3ZM237.864 72.084C237.313 72.084 236.828 71.9907 236.408 71.804C235.997 71.6173 235.68 71.3607 235.456 71.034C235.232 70.698 235.12 70.32 235.12 69.9C235.12 69.4987 235.213 69.1347 235.4 68.808C235.596 68.4813 235.909 68.22 236.338 68.024C236.777 67.828 237.365 67.73 238.102 67.73H240.454V68.696H238.158C237.486 68.696 237.033 68.808 236.8 69.032C236.567 69.256 236.45 69.5267 236.45 69.844C236.45 70.208 236.595 70.502 236.884 70.726C237.173 70.9407 237.575 71.048 238.088 71.048C238.592 71.048 239.031 70.936 239.404 70.712C239.787 70.488 240.062 70.1613 240.23 69.732L240.496 70.656C240.319 71.0947 240.006 71.4447 239.558 71.706C239.11 71.958 238.545 72.084 237.864 72.084ZM247.295 72.084C246.539 72.084 245.862 71.9207 245.265 71.594C244.677 71.2673 244.215 70.8193 243.879 70.25C243.543 69.6807 243.375 69.0273 243.375 68.29C243.375 67.5527 243.543 66.8993 243.879 66.33C244.215 65.7607 244.677 65.3173 245.265 65C245.862 64.6733 246.539 64.51 247.295 64.51C247.967 64.51 248.564 64.6453 249.087 64.916C249.619 65.1773 250.03 65.5693 250.319 66.092L249.297 66.75C249.054 66.386 248.756 66.12 248.401 65.952C248.056 65.7747 247.682 65.686 247.281 65.686C246.796 65.686 246.362 65.7933 245.979 66.008C245.596 66.2227 245.293 66.526 245.069 66.918C244.845 67.3007 244.733 67.758 244.733 68.29C244.733 68.822 244.845 69.284 245.069 69.676C245.293 70.068 245.596 70.3713 245.979 70.586C246.362 70.8007 246.796 70.908 247.281 70.908C247.682 70.908 248.056 70.824 248.401 70.656C248.756 70.4787 249.054 70.208 249.297 69.844L250.319 70.488C250.03 71.0013 249.619 71.398 249.087 71.678C248.564 71.9487 247.967 72.084 247.295 72.084ZM255.254 72.084C254.46 72.084 253.76 71.9207 253.154 71.594C252.556 71.2673 252.09 70.8193 251.754 70.25C251.427 69.6807 251.264 69.0273 251.264 68.29C251.264 67.5527 251.422 66.8993 251.74 66.33C252.066 65.7607 252.51 65.3173 253.07 65C253.639 64.6733 254.278 64.51 254.988 64.51C255.706 64.51 256.341 64.6687 256.892 64.986C257.442 65.3033 257.872 65.7513 258.18 66.33C258.497 66.8993 258.656 67.5667 258.656 68.332C258.656 68.388 258.651 68.4533 258.642 68.528C258.642 68.6027 258.637 68.6727 258.628 68.738H252.314V67.772H257.928L257.382 68.108C257.391 67.632 257.293 67.2073 257.088 66.834C256.882 66.4607 256.598 66.1713 256.234 65.966C255.879 65.7513 255.464 65.644 254.988 65.644C254.521 65.644 254.106 65.7513 253.742 65.966C253.378 66.1713 253.093 66.4653 252.888 66.848C252.682 67.2213 252.58 67.6507 252.58 68.136V68.36C252.58 68.8547 252.692 69.298 252.916 69.69C253.149 70.0727 253.471 70.3713 253.882 70.586C254.292 70.8007 254.764 70.908 255.296 70.908C255.734 70.908 256.131 70.8333 256.486 70.684C256.85 70.5347 257.167 70.3107 257.438 70.012L258.18 70.88C257.844 71.272 257.424 71.5707 256.92 71.776C256.425 71.9813 255.87 72.084 255.254 72.084ZM264.478 72V62.2H265.878V72H264.478ZM272.578 64.51C273.184 64.51 273.716 64.6267 274.174 64.86C274.64 65.0933 275.004 65.448 275.266 65.924C275.527 66.4 275.658 67.002 275.658 67.73V72H274.314V67.884C274.314 67.1653 274.136 66.624 273.782 66.26C273.436 65.896 272.946 65.714 272.312 65.714C271.836 65.714 271.42 65.8073 271.066 65.994C270.711 66.1807 270.436 66.456 270.24 66.82C270.053 67.184 269.96 67.6367 269.96 68.178V72H268.616V64.58H269.904V66.582L269.694 66.05C269.936 65.5647 270.31 65.1867 270.814 64.916C271.318 64.6453 271.906 64.51 272.578 64.51ZM280.693 72.084C279.946 72.084 279.368 71.8833 278.957 71.482C278.546 71.0807 278.341 70.5067 278.341 69.76V62.956H279.685V69.704C279.685 70.1053 279.783 70.4133 279.979 70.628C280.184 70.8427 280.474 70.95 280.847 70.95C281.267 70.95 281.617 70.8333 281.897 70.6L282.317 71.566C282.112 71.7433 281.864 71.874 281.575 71.958C281.295 72.042 281.001 72.084 280.693 72.084ZM277.081 65.686V64.58H281.813V65.686H277.081ZM287.064 72.084C286.429 72.084 285.869 71.9673 285.384 71.734C284.908 71.5007 284.535 71.146 284.264 70.67C284.003 70.1847 283.872 69.578 283.872 68.85V64.58H285.216V68.696C285.216 69.424 285.389 69.97 285.734 70.334C286.089 70.698 286.583 70.88 287.218 70.88C287.685 70.88 288.091 70.7867 288.436 70.6C288.781 70.404 289.047 70.124 289.234 69.76C289.421 69.3867 289.514 68.9387 289.514 68.416V64.58H290.858V72H289.584V69.998L289.794 70.53C289.551 71.0247 289.187 71.4073 288.702 71.678C288.217 71.9487 287.671 72.084 287.064 72.084ZM293.417 72V64.58H294.761V72H293.417ZM294.089 63.152C293.827 63.152 293.608 63.068 293.431 62.9C293.263 62.732 293.179 62.5267 293.179 62.284C293.179 62.032 293.263 61.822 293.431 61.654C293.608 61.486 293.827 61.402 294.089 61.402C294.35 61.402 294.565 61.486 294.733 61.654C294.91 61.8127 294.999 62.0133 294.999 62.256C294.999 62.508 294.915 62.7227 294.747 62.9C294.579 63.068 294.359 63.152 294.089 63.152ZM299.875 72.084C299.128 72.084 298.549 71.8833 298.139 71.482C297.728 71.0807 297.523 70.5067 297.523 69.76V62.956H298.867V69.704C298.867 70.1053 298.965 70.4133 299.161 70.628C299.366 70.8427 299.655 70.95 300.029 70.95C300.449 70.95 300.799 70.8333 301.079 70.6L301.499 71.566C301.293 71.7433 301.046 71.874 300.757 71.958C300.477 72.042 300.183 72.084 299.875 72.084ZM296.263 65.686V64.58H300.995V65.686H296.263ZM303.124 72V64.58H304.468V72H303.124ZM303.796 63.152C303.534 63.152 303.315 63.068 303.138 62.9C302.97 62.732 302.886 62.5267 302.886 62.284C302.886 62.032 302.97 61.822 303.138 61.654C303.315 61.486 303.534 61.402 303.796 61.402C304.057 61.402 304.272 61.486 304.44 61.654C304.617 61.8127 304.706 62.0133 304.706 62.256C304.706 62.508 304.622 62.7227 304.454 62.9C304.286 63.068 304.066 63.152 303.796 63.152ZM308.98 72L305.732 64.58H307.132L310.016 71.3H309.344L312.284 64.58H313.6L310.352 72H308.98ZM317.827 72.084C317.08 72.084 316.418 71.9207 315.839 71.594C315.26 71.2673 314.803 70.8193 314.467 70.25C314.131 69.6713 313.963 69.018 313.963 68.29C313.963 67.5527 314.131 66.8993 314.467 66.33C314.803 65.7607 315.26 65.3173 315.839 65C316.418 64.6733 317.08 64.51 317.827 64.51C318.564 64.51 319.222 64.6733 319.801 65C320.389 65.3173 320.846 65.7607 321.173 66.33C321.509 66.89 321.677 67.5433 321.677 68.29C321.677 69.0273 321.509 69.6807 321.173 70.25C320.846 70.8193 320.389 71.2673 319.801 71.594C319.222 71.9207 318.564 72.084 317.827 72.084ZM317.827 70.908C318.303 70.908 318.728 70.8007 319.101 70.586C319.484 70.3713 319.782 70.068 319.997 69.676C320.212 69.2747 320.319 68.8127 320.319 68.29C320.319 67.758 320.212 67.3007 319.997 66.918C319.782 66.526 319.484 66.2227 319.101 66.008C318.728 65.7933 318.303 65.686 317.827 65.686C317.351 65.686 316.926 65.7933 316.553 66.008C316.18 66.2227 315.881 66.526 315.657 66.918C315.433 67.3007 315.321 67.758 315.321 68.29C315.321 68.8127 315.433 69.2747 315.657 69.676C315.881 70.068 316.18 70.3713 316.553 70.586C316.926 70.8007 317.351 70.908 317.827 70.908Z" fill="black"/>
<defs>
<filter id="filter0_d_86_155" x="0" y="0" width="405" height="164" filterUnits="userSpaceOnUse" color-interpolation-filters="sRGB">
<feFlood flood-opacity="0" result="BackgroundImageFix"/>
<feColorMatrix in="SourceAlpha" type="matrix" values="0 0 0 0 0 0 0 0 0 0 0 0 0 0 0 0 0 0 127 0" result="hardAlpha"/>
<feOffset dy="15"/>
<feGaussianBlur stdDeviation="22.5"/>
<feColorMatrix type="matrix" values="0 0 0 0 0.301961 0 0 0 0 0.243137 0 0 0 0 0.243137 0 0 0 0.29 0"/>
<feBlend mode="normal" in2="BackgroundImageFix" result="effect1_dropShadow_86_155"/>
<feBlend mode="normal" in="SourceGraphic" in2="effect1_dropShadow_86_155" result="shape"/>
</filter>
<linearGradient id="paint0_linear_86_155" x1="84" y1="52" x2="84" y2="82" gradientUnits="userSpaceOnUse">
<stop stop-color="#61DA17"/>
<stop offset="1" stop-color="#D3F13A"/>
</linearGradient>
</defs>
</svg>
