<svg width="219" height="219" viewBox="0 0 219 219" fill="none" xmlns="http://www.w3.org/2000/svg">
<g filter="url(#filter0_d_116_44)">
<path d="M151.886 30H67.1143C54.9009 30 45 39.9009 45 52.1143V136.886C45 149.099 54.9009 159 67.1143 159H151.886C164.099 159 174 149.099 174 136.886V52.1143C174 39.9009 164.099 30 151.886 30Z" fill="white"/>
</g>
<path d="M99.472 95.106C100.872 95.106 101.899 95.372 102.552 95.904C103.215 96.4267 103.546 97.1453 103.546 98.06C103.546 98.6387 103.406 99.1613 103.126 99.628C102.855 100.085 102.44 100.449 101.88 100.72C101.329 100.981 100.648 101.112 99.836 101.112C99.1453 101.112 98.478 101.009 97.834 100.804C97.19 100.589 96.658 100.295 96.238 99.922L96.882 98.816C97.218 99.1333 97.6473 99.39 98.17 99.586C98.6927 99.7727 99.2433 99.866 99.822 99.866C100.559 99.866 101.129 99.712 101.53 99.404C101.941 99.0867 102.146 98.6573 102.146 98.116C102.146 97.528 101.922 97.0847 101.474 96.786C101.026 96.478 100.261 96.324 99.178 96.324H96.952L97.47 91.2H103V92.418H98.646L98.38 95.106H99.472ZM108.939 95.05C109.583 95.05 110.157 95.1713 110.661 95.414C111.174 95.6567 111.576 96.0067 111.865 96.464C112.154 96.912 112.299 97.43 112.299 98.018C112.299 98.634 112.145 99.1753 111.837 99.642C111.538 100.109 111.123 100.473 110.591 100.734C110.068 100.986 109.48 101.112 108.827 101.112C107.511 101.112 106.494 100.687 105.775 99.838C105.066 98.9887 104.711 97.7847 104.711 96.226C104.711 95.134 104.902 94.2053 105.285 93.44C105.677 92.6653 106.218 92.082 106.909 91.69C107.609 91.2887 108.421 91.088 109.345 91.088C109.821 91.088 110.269 91.1393 110.689 91.242C111.109 91.3353 111.473 91.4753 111.781 91.662L111.249 92.754C110.782 92.446 110.157 92.292 109.373 92.292C108.356 92.292 107.558 92.6093 106.979 93.244C106.4 93.8693 106.111 94.784 106.111 95.988C106.111 96.1373 106.116 96.254 106.125 96.338C106.405 95.918 106.788 95.6007 107.273 95.386C107.768 95.162 108.323 95.05 108.939 95.05ZM108.771 99.978C109.415 99.978 109.938 99.8053 110.339 99.46C110.74 99.1147 110.941 98.6527 110.941 98.074C110.941 97.4953 110.736 97.038 110.325 96.702C109.924 96.3567 109.382 96.184 108.701 96.184C108.262 96.184 107.87 96.268 107.525 96.436C107.189 96.604 106.923 96.8327 106.727 97.122C106.54 97.4113 106.447 97.7333 106.447 98.088C106.447 98.4333 106.536 98.7507 106.713 99.04C106.9 99.32 107.166 99.5487 107.511 99.726C107.866 99.894 108.286 99.978 108.771 99.978ZM115.206 96.464C114.525 96.464 113.974 96.2167 113.554 95.722C113.134 95.2273 112.924 94.5833 112.924 93.79C112.924 92.9967 113.134 92.3527 113.554 91.858C113.974 91.3633 114.525 91.116 115.206 91.116C115.888 91.116 116.434 91.3633 116.844 91.858C117.264 92.3433 117.474 92.9873 117.474 93.79C117.474 94.5927 117.264 95.2413 116.844 95.736C116.434 96.2213 115.888 96.464 115.206 96.464ZM121.114 91.2H122.192L115.5 101H114.422L121.114 91.2ZM115.206 95.666C115.636 95.666 115.972 95.5027 116.214 95.176C116.457 94.84 116.578 94.378 116.578 93.79C116.578 93.202 116.457 92.7447 116.214 92.418C115.972 92.082 115.636 91.914 115.206 91.914C114.786 91.914 114.45 92.082 114.198 92.418C113.956 92.754 113.834 93.2113 113.834 93.79C113.834 94.3687 113.956 94.826 114.198 95.162C114.45 95.498 114.786 95.666 115.206 95.666ZM121.408 101.084C120.727 101.084 120.176 100.841 119.756 100.356C119.346 99.8613 119.14 99.2127 119.14 98.41C119.14 97.6073 119.346 96.9633 119.756 96.478C120.176 95.9833 120.727 95.736 121.408 95.736C122.09 95.736 122.64 95.9833 123.06 96.478C123.48 96.9727 123.69 97.6167 123.69 98.41C123.69 99.2033 123.48 99.8473 123.06 100.342C122.64 100.837 122.09 101.084 121.408 101.084ZM121.408 100.286C121.828 100.286 122.16 100.118 122.402 99.782C122.654 99.446 122.78 98.9887 122.78 98.41C122.78 97.8313 122.654 97.374 122.402 97.038C122.16 96.702 121.828 96.534 121.408 96.534C120.979 96.534 120.643 96.702 120.4 97.038C120.158 97.3647 120.036 97.822 120.036 98.41C120.036 98.998 120.158 99.46 120.4 99.796C120.643 100.123 120.979 100.286 121.408 100.286Z" fill="black"/>
<path d="M154 95C154 119.301 134.301 139 110 139C85.6995 139 66 119.301 66 95C66 70.6995 85.6995 51 110 51C134.301 51 154 70.6995 154 95ZM79.5492 95C79.5492 111.818 93.1825 125.451 110 125.451C126.818 125.451 140.451 111.818 140.451 95C140.451 78.1825 126.818 64.5492 110 64.5492C93.1825 64.5492 79.5492 78.1825 79.5492 95Z" fill="#E3E3E3"/>
<path d="M110.08 51C116.385 51.0116 122.613 52.3777 128.343 55.0058C134.073 57.634 139.172 61.4628 143.294 66.2331C147.415 71.0033 150.464 76.6036 152.233 82.6546C154.001 88.7056 154.449 95.0661 153.546 101.305C152.643 107.544 150.409 113.517 146.996 118.817C143.584 124.118 139.072 128.624 133.767 132.029C128.461 135.434 122.486 137.66 116.246 138.554C110.005 139.449 103.645 138.993 97.5968 137.216L101.416 124.216C105.602 125.446 110.004 125.762 114.322 125.142C118.641 124.523 122.776 122.983 126.448 120.626C130.12 118.27 133.242 115.152 135.604 111.483C137.966 107.815 139.511 103.682 140.137 99.3636C140.762 95.0457 140.452 90.6439 139.228 86.4562C138.004 82.2685 135.894 78.3928 133.041 75.0915C130.189 71.7902 126.66 69.1403 122.695 67.3215C118.729 65.5026 114.419 64.5572 110.056 64.5492L110.08 51Z" fill="#E3E3E3"/>
<path d="M110.08 51C116.385 51.0116 122.613 52.3777 128.343 55.0058C134.073 57.634 139.172 61.4628 143.294 66.2331C147.415 71.0033 150.464 76.6036 152.233 82.6546C154.001 88.7056 154.449 95.0661 153.546 101.305C152.643 107.544 150.409 113.517 146.996 118.817C143.584 124.118 139.072 128.624 133.767 132.029C128.461 135.434 122.486 137.66 116.246 138.554C110.005 139.449 103.645 138.993 97.5968 137.216L101.416 124.216C105.602 125.446 110.004 125.762 114.322 125.142C118.641 124.523 122.776 122.983 126.448 120.626C130.12 118.27 133.242 115.152 135.604 111.483C137.966 107.815 139.511 103.682 140.137 99.3636C140.762 95.0457 140.452 90.6439 139.228 86.4562C138.004 82.2685 135.894 78.3928 133.041 75.0915C130.189 71.7902 126.66 69.1403 122.695 67.3215C118.729 65.5026 114.419 64.5572 110.056 64.5492L110.08 51Z" fill="url(#paint0_linear_116_44)"/>
<defs>
<filter id="filter0_d_116_44" x="0" y="0" width="219" height="219" filterUnits="userSpaceOnUse" color-interpolation-filters="sRGB">
<feFlood flood-opacity="0" result="BackgroundImageFix"/>
<feColorMatrix in="SourceAlpha" type="matrix" values="0 0 0 0 0 0 0 0 0 0 0 0 0 0 0 0 0 0 127 0" result="hardAlpha"/>
<feOffset dy="15"/>
<feGaussianBlur stdDeviation="22.5"/>
<feColorMatrix type="matrix" values="0 0 0 0 0.301961 0 0 0 0 0.243137 0 0 0 0 0.243137 0 0 0 0.29 0"/>
<feBlend mode="normal" in2="BackgroundImageFix" result="effect1_dropShadow_116_44"/>
<feBlend mode="normal" in="SourceGraphic" in2="effect1_dropShadow_116_44" result="shape"/>
</filter>
<linearGradient id="paint0_linear_116_44" x1="66.0001" y1="94.9195" x2="154" y2="95.0804" gradientUnits="userSpaceOnUse">
<stop stop-color="#61DA17"/>
<stop offset="1" stop-color="#D3F13A"/>
</linearGradient>
</defs>
</svg>
