<svg width="321" height="250" viewBox="0 0 321 250" fill="none" xmlns="http://www.w3.org/2000/svg">
<g filter="url(#filter0_d_116_43)">
<path d="M253.573 30H67.4272C55.041 30 45 40.041 45 52.4272V166.806C45 179.192 55.041 189.233 67.4272 189.233H253.573C265.959 189.233 276 179.192 276 166.806V52.4272C276 40.041 265.959 30 253.573 30Z" fill="white"/>
</g>
<path d="M163.864 88.3108C167.235 88.3108 170.467 89.6497 172.851 92.0331C175.234 94.4164 176.573 97.649 176.573 101.02V189.233H151.155V101.02C151.155 97.649 152.494 94.4164 154.878 92.0331C157.261 89.6497 160.494 88.3108 163.864 88.3108V88.3108Z" fill="url(#paint0_linear_116_43)"/>
<path opacity="0.38" d="M121.252 112.98C124.623 112.98 127.856 114.319 130.239 116.703C132.622 119.086 133.961 122.319 133.961 125.689V189.233H108.544V125.689C108.544 122.319 109.883 119.086 112.266 116.703C114.649 114.319 117.882 112.98 121.252 112.98V112.98Z" fill="url(#paint1_linear_116_43)"/>
<path opacity="0.38" d="M79.3883 100.272C82.7589 100.272 85.9914 101.611 88.3747 103.994C90.7581 106.377 92.097 109.61 92.097 112.98V189.233H66.6796V112.98C66.6796 109.61 68.0185 106.377 70.4019 103.994C72.7852 101.611 76.0177 100.272 79.3883 100.272V100.272Z" fill="url(#paint2_linear_116_43)"/>
<path opacity="0.38" d="M246.845 67.3787H249.087C250.56 67.3787 252.018 67.6687 253.379 68.2322C254.739 68.7958 255.975 69.6218 257.017 70.663C258.058 71.7043 258.884 72.9405 259.447 74.301C260.011 75.6615 260.301 77.1197 260.301 78.5923V189.233H235.631V78.5923C235.631 75.6182 236.813 72.766 238.915 70.663C241.018 68.5601 243.871 67.3787 246.845 67.3787V67.3787Z" fill="url(#paint3_linear_116_43)"/>
<path opacity="0.38" d="M205.728 100.272C209.099 100.272 212.331 101.611 214.715 103.994C217.098 106.377 218.437 109.61 218.437 112.98V189.233H193.019V112.98C193.019 109.61 194.358 106.377 196.742 103.994C199.125 101.611 202.358 100.272 205.728 100.272V100.272Z" fill="url(#paint4_linear_116_43)"/>
<path d="M69.744 55.428H74.784V56.618H69.744V55.428ZM69.87 59.782H75.582V61H68.47V51.2H75.386V52.418H69.87V59.782ZM79.6852 61.084C79.0692 61.084 78.4812 61 77.9212 60.832C77.3705 60.664 76.9365 60.4587 76.6192 60.216L77.1792 59.152C77.4965 59.3667 77.8885 59.5487 78.3552 59.698C78.8219 59.8473 79.2979 59.922 79.7832 59.922C80.4085 59.922 80.8565 59.8333 81.1272 59.656C81.4072 59.4787 81.5472 59.2313 81.5472 58.914C81.5472 58.6807 81.4632 58.4987 81.2952 58.368C81.1272 58.2373 80.9032 58.1393 80.6232 58.074C80.3525 58.0087 80.0492 57.9527 79.7132 57.906C79.3772 57.85 79.0412 57.7847 78.7052 57.71C78.3692 57.626 78.0612 57.514 77.7812 57.374C77.5012 57.2247 77.2772 57.024 77.1092 56.772C76.9412 56.5107 76.8572 56.1653 76.8572 55.736C76.8572 55.288 76.9832 54.896 77.2352 54.56C77.4872 54.224 77.8419 53.9673 78.2992 53.79C78.7659 53.6033 79.3165 53.51 79.9512 53.51C80.4365 53.51 80.9265 53.5707 81.4212 53.692C81.9252 53.804 82.3359 53.9673 82.6532 54.182L82.0792 55.246C81.7432 55.022 81.3932 54.868 81.0292 54.784C80.6652 54.7 80.3012 54.658 79.9372 54.658C79.3492 54.658 78.9105 54.756 78.6212 54.952C78.3319 55.1387 78.1872 55.3813 78.1872 55.68C78.1872 55.932 78.2712 56.128 78.4392 56.268C78.6165 56.3987 78.8405 56.5013 79.1112 56.576C79.3912 56.6507 79.6992 56.716 80.0352 56.772C80.3712 56.8187 80.7072 56.884 81.0432 56.968C81.3792 57.0427 81.6825 57.15 81.9532 57.29C82.2332 57.43 82.4572 57.626 82.6252 57.878C82.8025 58.13 82.8912 58.466 82.8912 58.886C82.8912 59.334 82.7605 59.7213 82.4992 60.048C82.2379 60.3747 81.8692 60.6313 81.3932 60.818C80.9172 60.9953 80.3479 61.084 79.6852 61.084ZM87.1189 61.084C86.3722 61.084 85.7935 60.8833 85.3829 60.482C84.9722 60.0807 84.7669 59.5067 84.7669 58.76V51.956H86.1109V58.704C86.1109 59.1053 86.2089 59.4133 86.4049 59.628C86.6102 59.8427 86.8995 59.95 87.2729 59.95C87.6929 59.95 88.0429 59.8333 88.3229 59.6L88.7429 60.566C88.5375 60.7433 88.2902 60.874 88.0009 60.958C87.7209 61.042 87.4269 61.084 87.1189 61.084ZM83.5069 54.686V53.58H88.2389V54.686H83.5069ZM90.3678 61V53.58H91.6558V55.596L91.5298 55.092C91.7351 54.5787 92.0804 54.1867 92.5658 53.916C93.0511 53.6453 93.6484 53.51 94.3578 53.51V54.812C94.3018 54.8027 94.2458 54.798 94.1898 54.798C94.1431 54.798 94.0964 54.798 94.0498 54.798C93.3311 54.798 92.7618 55.0127 92.3418 55.442C91.9218 55.8713 91.7118 56.492 91.7118 57.304V61H90.3678ZM100.073 61V59.432L100.003 59.138V56.464C100.003 55.8947 99.8354 55.456 99.4994 55.148C99.1727 54.8307 98.678 54.672 98.0154 54.672C97.5767 54.672 97.1474 54.7467 96.7274 54.896C96.3074 55.036 95.9527 55.2273 95.6634 55.47L95.1034 54.462C95.486 54.154 95.9434 53.9207 96.4754 53.762C97.0167 53.594 97.5814 53.51 98.1694 53.51C99.1867 53.51 99.9707 53.7573 100.521 54.252C101.072 54.7467 101.347 55.5027 101.347 56.52V61H100.073ZM97.6374 61.084C97.0867 61.084 96.6014 60.9907 96.1814 60.804C95.7707 60.6173 95.4534 60.3607 95.2294 60.034C95.0054 59.698 94.8934 59.32 94.8934 58.9C94.8934 58.4987 94.9867 58.1347 95.1734 57.808C95.3694 57.4813 95.682 57.22 96.1114 57.024C96.55 56.828 97.138 56.73 97.8754 56.73H100.227V57.696H97.9314C97.2594 57.696 96.8067 57.808 96.5734 58.032C96.34 58.256 96.2234 58.5267 96.2234 58.844C96.2234 59.208 96.368 59.502 96.6574 59.726C96.9467 59.9407 97.348 60.048 97.8614 60.048C98.3654 60.048 98.804 59.936 99.1774 59.712C99.56 59.488 99.8354 59.1613 100.003 58.732L100.269 59.656C100.092 60.0947 99.7794 60.4447 99.3314 60.706C98.8834 60.958 98.3187 61.084 97.6374 61.084ZM106.383 61.084C105.636 61.084 105.057 60.8833 104.647 60.482C104.236 60.0807 104.031 59.5067 104.031 58.76V51.956H105.375V58.704C105.375 59.1053 105.473 59.4133 105.669 59.628C105.874 59.8427 106.163 59.95 106.537 59.95C106.957 59.95 107.307 59.8333 107.587 59.6L108.007 60.566C107.801 60.7433 107.554 60.874 107.265 60.958C106.985 61.042 106.691 61.084 106.383 61.084ZM102.771 54.686V53.58H107.503V54.686H102.771ZM112.689 61.084C111.896 61.084 111.196 60.9207 110.589 60.594C109.992 60.2673 109.525 59.8193 109.189 59.25C108.863 58.6807 108.699 58.0273 108.699 57.29C108.699 56.5527 108.858 55.8993 109.175 55.33C109.502 54.7607 109.945 54.3173 110.505 54C111.075 53.6733 111.714 53.51 112.423 53.51C113.142 53.51 113.777 53.6687 114.327 53.986C114.878 54.3033 115.307 54.7513 115.615 55.33C115.933 55.8993 116.091 56.5667 116.091 57.332C116.091 57.388 116.087 57.4533 116.077 57.528C116.077 57.6027 116.073 57.6727 116.063 57.738H109.749V56.772H115.363L114.817 57.108C114.827 56.632 114.729 56.2073 114.523 55.834C114.318 55.4607 114.033 55.1713 113.669 54.966C113.315 54.7513 112.899 54.644 112.423 54.644C111.957 54.644 111.541 54.7513 111.177 54.966C110.813 55.1713 110.529 55.4653 110.323 55.848C110.118 56.2213 110.015 56.6507 110.015 57.136V57.36C110.015 57.8547 110.127 58.298 110.351 58.69C110.585 59.0727 110.907 59.3713 111.317 59.586C111.728 59.8007 112.199 59.908 112.731 59.908C113.17 59.908 113.567 59.8333 113.921 59.684C114.285 59.5347 114.603 59.3107 114.873 59.012L115.615 59.88C115.279 60.272 114.859 60.5707 114.355 60.776C113.861 60.9813 113.305 61.084 112.689 61.084ZM111.359 52.502L113.263 50.682H114.971L112.619 52.502H111.359ZM121.206 63.8C120.524 63.8 119.862 63.702 119.218 63.506C118.583 63.3193 118.065 63.0487 117.664 62.694L118.308 61.658C118.653 61.9567 119.078 62.19 119.582 62.358C120.086 62.5353 120.613 62.624 121.164 62.624C122.041 62.624 122.685 62.4187 123.096 62.008C123.506 61.5973 123.712 60.972 123.712 60.132V58.564L123.852 57.094L123.782 55.61V53.58H125.056V59.992C125.056 61.2987 124.729 62.26 124.076 62.876C123.422 63.492 122.466 63.8 121.206 63.8ZM121.038 60.692C120.319 60.692 119.675 60.5427 119.106 60.244C118.546 59.936 118.098 59.5113 117.762 58.97C117.435 58.4287 117.272 57.8033 117.272 57.094C117.272 56.3753 117.435 55.75 117.762 55.218C118.098 54.6767 118.546 54.2567 119.106 53.958C119.675 53.6593 120.319 53.51 121.038 53.51C121.672 53.51 122.251 53.6407 122.774 53.902C123.296 54.154 123.712 54.546 124.02 55.078C124.337 55.61 124.496 56.282 124.496 57.094C124.496 57.8967 124.337 58.564 124.02 59.096C123.712 59.628 123.296 60.0293 122.774 60.3C122.251 60.5613 121.672 60.692 121.038 60.692ZM121.192 59.516C121.686 59.516 122.125 59.4133 122.508 59.208C122.89 59.0027 123.189 58.718 123.404 58.354C123.628 57.99 123.74 57.57 123.74 57.094C123.74 56.618 123.628 56.198 123.404 55.834C123.189 55.47 122.89 55.19 122.508 54.994C122.125 54.7887 121.686 54.686 121.192 54.686C120.697 54.686 120.254 54.7887 119.862 54.994C119.479 55.19 119.176 55.47 118.952 55.834C118.737 56.198 118.63 56.618 118.63 57.094C118.63 57.57 118.737 57.99 118.952 58.354C119.176 58.718 119.479 59.0027 119.862 59.208C120.254 59.4133 120.697 59.516 121.192 59.516ZM127.624 61V53.58H128.968V61H127.624ZM128.296 52.152C128.034 52.152 127.815 52.068 127.638 51.9C127.47 51.732 127.386 51.5267 127.386 51.284C127.386 51.032 127.47 50.822 127.638 50.654C127.815 50.486 128.034 50.402 128.296 50.402C128.557 50.402 128.772 50.486 128.94 50.654C129.117 50.8127 129.206 51.0133 129.206 51.256C129.206 51.508 129.122 51.7227 128.954 51.9C128.786 52.068 128.566 52.152 128.296 52.152ZM136.14 61V59.432L136.07 59.138V56.464C136.07 55.8947 135.902 55.456 135.566 55.148C135.239 54.8307 134.744 54.672 134.082 54.672C133.643 54.672 133.214 54.7467 132.794 54.896C132.374 55.036 132.019 55.2273 131.73 55.47L131.17 54.462C131.552 54.154 132.01 53.9207 132.542 53.762C133.083 53.594 133.648 53.51 134.236 53.51C135.253 53.51 136.037 53.7573 136.588 54.252C137.138 54.7467 137.414 55.5027 137.414 56.52V61H136.14ZM133.704 61.084C133.153 61.084 132.668 60.9907 132.248 60.804C131.837 60.6173 131.52 60.3607 131.296 60.034C131.072 59.698 130.96 59.32 130.96 58.9C130.96 58.4987 131.053 58.1347 131.24 57.808C131.436 57.4813 131.748 57.22 132.178 57.024C132.616 56.828 133.204 56.73 133.942 56.73H136.294V57.696H133.998C133.326 57.696 132.873 57.808 132.64 58.032C132.406 58.256 132.29 58.5267 132.29 58.844C132.29 59.208 132.434 59.502 132.724 59.726C133.013 59.9407 133.414 60.048 133.928 60.048C134.432 60.048 134.87 59.936 135.244 59.712C135.626 59.488 135.902 59.1613 136.07 58.732L136.336 59.656C136.158 60.0947 135.846 60.4447 135.398 60.706C134.95 60.958 134.385 61.084 133.704 61.084ZM146.727 61.084C146.008 61.084 145.364 60.9253 144.795 60.608C144.235 60.2907 143.791 59.8473 143.465 59.278C143.138 58.7087 142.975 58.046 142.975 57.29C142.975 56.534 143.138 55.876 143.465 55.316C143.791 54.7467 144.235 54.3033 144.795 53.986C145.364 53.6687 146.008 53.51 146.727 53.51C147.352 53.51 147.917 53.65 148.421 53.93C148.925 54.21 149.326 54.63 149.625 55.19C149.933 55.75 150.087 56.45 150.087 57.29C150.087 58.13 149.937 58.83 149.639 59.39C149.349 59.95 148.953 60.3747 148.449 60.664C147.945 60.944 147.371 61.084 146.727 61.084ZM146.839 59.908C147.305 59.908 147.725 59.8007 148.099 59.586C148.481 59.3713 148.78 59.068 148.995 58.676C149.219 58.2747 149.331 57.8127 149.331 57.29C149.331 56.758 149.219 56.3007 148.995 55.918C148.78 55.526 148.481 55.2227 148.099 55.008C147.725 54.7933 147.305 54.686 146.839 54.686C146.363 54.686 145.938 54.7933 145.565 55.008C145.191 55.2227 144.893 55.526 144.669 55.918C144.445 56.3007 144.333 56.758 144.333 57.29C144.333 57.8127 144.445 58.2747 144.669 58.676C144.893 59.068 145.191 59.3713 145.565 59.586C145.938 59.8007 146.363 59.908 146.839 59.908ZM149.373 61V58.998L149.457 57.276L149.317 55.554V50.612H150.661V61H149.373ZM156.508 61.084C155.714 61.084 155.014 60.9207 154.408 60.594C153.81 60.2673 153.344 59.8193 153.008 59.25C152.681 58.6807 152.518 58.0273 152.518 57.29C152.518 56.5527 152.676 55.8993 152.994 55.33C153.32 54.7607 153.764 54.3173 154.324 54C154.893 53.6733 155.532 53.51 156.242 53.51C156.96 53.51 157.595 53.6687 158.146 53.986C158.696 54.3033 159.126 54.7513 159.434 55.33C159.751 55.8993 159.91 56.5667 159.91 57.332C159.91 57.388 159.905 57.4533 159.896 57.528C159.896 57.6027 159.891 57.6727 159.882 57.738H153.568V56.772H159.182L158.636 57.108C158.645 56.632 158.547 56.2073 158.342 55.834C158.136 55.4607 157.852 55.1713 157.488 54.966C157.133 54.7513 156.718 54.644 156.242 54.644C155.775 54.644 155.36 54.7513 154.996 54.966C154.632 55.1713 154.347 55.4653 154.142 55.848C153.936 56.2213 153.834 56.6507 153.834 57.136V57.36C153.834 57.8547 153.946 58.298 154.17 58.69C154.403 59.0727 154.725 59.3713 155.136 59.586C155.546 59.8007 156.018 59.908 156.55 59.908C156.988 59.908 157.385 59.8333 157.74 59.684C158.104 59.5347 158.421 59.3107 158.692 59.012L159.434 59.88C159.098 60.272 158.678 60.5707 158.174 60.776C157.679 60.9813 157.124 61.084 156.508 61.084ZM170.156 61.112C169.4 61.112 168.704 60.9907 168.07 60.748C167.435 60.496 166.884 60.146 166.418 59.698C165.951 59.2407 165.587 58.7087 165.326 58.102C165.064 57.4953 164.934 56.828 164.934 56.1C164.934 55.372 165.064 54.7047 165.326 54.098C165.587 53.4913 165.951 52.964 166.418 52.516C166.894 52.0587 167.449 51.7087 168.084 51.466C168.718 51.214 169.418 51.088 170.184 51.088C170.958 51.088 171.668 51.214 172.312 51.466C172.956 51.718 173.502 52.096 173.95 52.6L173.082 53.468C172.68 53.076 172.242 52.7913 171.766 52.614C171.299 52.4273 170.79 52.334 170.24 52.334C169.68 52.334 169.157 52.4273 168.672 52.614C168.196 52.8007 167.78 53.062 167.426 53.398C167.08 53.734 166.81 54.1353 166.614 54.602C166.427 55.0593 166.334 55.5587 166.334 56.1C166.334 56.632 166.427 57.1313 166.614 57.598C166.81 58.0553 167.08 58.4567 167.426 58.802C167.78 59.138 168.196 59.3993 168.672 59.586C169.148 59.7727 169.666 59.866 170.226 59.866C170.748 59.866 171.248 59.7867 171.724 59.628C172.209 59.46 172.657 59.1847 173.068 58.802L173.866 59.866C173.38 60.2767 172.811 60.5893 172.158 60.804C171.514 61.0093 170.846 61.112 170.156 61.112ZM172.522 59.684V56.044H173.866V59.866L172.522 59.684ZM176.35 61V53.58H177.638V55.596L177.512 55.092C177.718 54.5787 178.063 54.1867 178.548 53.916C179.034 53.6453 179.631 53.51 180.34 53.51V54.812C180.284 54.8027 180.228 54.798 180.172 54.798C180.126 54.798 180.079 54.798 180.032 54.798C179.314 54.798 178.744 55.0127 178.324 55.442C177.904 55.8713 177.694 56.492 177.694 57.304V61H176.35ZM185.106 61.084C184.36 61.084 183.697 60.9207 183.118 60.594C182.54 60.2673 182.082 59.8193 181.746 59.25C181.41 58.6713 181.242 58.018 181.242 57.29C181.242 56.5527 181.41 55.8993 181.746 55.33C182.082 54.7607 182.54 54.3173 183.118 54C183.697 53.6733 184.36 53.51 185.106 53.51C185.844 53.51 186.502 53.6733 187.08 54C187.668 54.3173 188.126 54.7607 188.452 55.33C188.788 55.89 188.956 56.5433 188.956 57.29C188.956 58.0273 188.788 58.6807 188.452 59.25C188.126 59.8193 187.668 60.2673 187.08 60.594C186.502 60.9207 185.844 61.084 185.106 61.084ZM185.106 59.908C185.582 59.908 186.007 59.8007 186.38 59.586C186.763 59.3713 187.062 59.068 187.276 58.676C187.491 58.2747 187.598 57.8127 187.598 57.29C187.598 56.758 187.491 56.3007 187.276 55.918C187.062 55.526 186.763 55.2227 186.38 55.008C186.007 54.7933 185.582 54.686 185.106 54.686C184.63 54.686 184.206 54.7933 183.832 55.008C183.459 55.2227 183.16 55.526 182.936 55.918C182.712 56.3007 182.6 56.758 182.6 57.29C182.6 57.8127 182.712 58.2747 182.936 58.676C183.16 59.068 183.459 59.3713 183.832 59.586C184.206 59.8007 184.63 59.908 185.106 59.908ZM192.178 61L189.42 53.58H190.694L193.144 60.3H192.542L195.09 53.58H196.224L198.716 60.3H198.128L200.634 53.58H201.838L199.066 61H197.778L195.44 54.868H195.832L193.466 61H192.178ZM205.955 61.084C205.208 61.084 204.629 60.8833 204.219 60.482C203.808 60.0807 203.603 59.5067 203.603 58.76V51.956H204.947V58.704C204.947 59.1053 205.045 59.4133 205.241 59.628C205.446 59.8427 205.735 59.95 206.109 59.95C206.529 59.95 206.879 59.8333 207.159 59.6L207.579 60.566C207.373 60.7433 207.126 60.874 206.837 60.958C206.557 61.042 206.263 61.084 205.955 61.084ZM202.343 54.686V53.58H207.075V54.686H202.343ZM213.166 53.51C213.772 53.51 214.304 53.6267 214.762 53.86C215.228 54.0933 215.592 54.448 215.854 54.924C216.115 55.4 216.246 56.002 216.246 56.73V61H214.902V56.884C214.902 56.1653 214.724 55.624 214.37 55.26C214.024 54.896 213.534 54.714 212.9 54.714C212.424 54.714 212.008 54.8073 211.654 54.994C211.299 55.1807 211.024 55.456 210.828 55.82C210.641 56.184 210.548 56.6367 210.548 57.178V61H209.204V50.612H210.548V55.582L210.282 55.05C210.524 54.5647 210.898 54.1867 211.402 53.916C211.906 53.6453 212.494 53.51 213.166 53.51ZM68.47 78V68.2H72.292C73.1507 68.2 73.8833 68.3353 74.49 68.606C75.0967 68.8767 75.5633 69.2687 75.89 69.782C76.2167 70.2953 76.38 70.9067 76.38 71.616C76.38 72.3253 76.2167 72.9367 75.89 73.45C75.5633 73.954 75.0967 74.346 74.49 74.626C73.8833 74.8967 73.1507 75.032 72.292 75.032H69.24L69.87 74.374V78H68.47ZM69.87 74.514L69.24 73.814H72.25C73.146 73.814 73.8227 73.6227 74.28 73.24C74.7467 72.8573 74.98 72.316 74.98 71.616C74.98 70.916 74.7467 70.3747 74.28 69.992C73.8227 69.6093 73.146 69.418 72.25 69.418H69.24L69.87 68.718V74.514ZM81.5175 78.084C80.7241 78.084 80.0241 77.9207 79.4175 77.594C78.8201 77.2673 78.3535 76.8193 78.0175 76.25C77.6908 75.6807 77.5275 75.0273 77.5275 74.29C77.5275 73.5527 77.6861 72.8993 78.0035 72.33C78.3301 71.7607 78.7735 71.3173 79.3335 71C79.9028 70.6733 80.5421 70.51 81.2515 70.51C81.9701 70.51 82.6048 70.6687 83.1555 70.986C83.7061 71.3033 84.1355 71.7513 84.4435 72.33C84.7608 72.8993 84.9195 73.5667 84.9195 74.332C84.9195 74.388 84.9148 74.4533 84.9055 74.528C84.9055 74.6027 84.9008 74.6727 84.8915 74.738H78.5775V73.772H84.1915L83.6455 74.108C83.6548 73.632 83.5568 73.2073 83.3515 72.834C83.1461 72.4607 82.8615 72.1713 82.4975 71.966C82.1428 71.7513 81.7275 71.644 81.2515 71.644C80.7848 71.644 80.3695 71.7513 80.0055 71.966C79.6415 72.1713 79.3568 72.4653 79.1515 72.848C78.9461 73.2213 78.8435 73.6507 78.8435 74.136V74.36C78.8435 74.8547 78.9555 75.298 79.1795 75.69C79.4128 76.0727 79.7348 76.3713 80.1455 76.586C80.5561 76.8007 81.0275 76.908 81.5595 76.908C81.9981 76.908 82.3948 76.8333 82.7495 76.684C83.1135 76.5347 83.4308 76.3107 83.7015 76.012L84.4435 76.88C84.1075 77.272 83.6875 77.5707 83.1835 77.776C82.6888 77.9813 82.1335 78.084 81.5175 78.084ZM86.7857 78V70.58H88.0737V72.596L87.9477 72.092C88.1531 71.5787 88.4984 71.1867 88.9837 70.916C89.4691 70.6453 90.0664 70.51 90.7757 70.51V71.812C90.7197 71.8027 90.6637 71.798 90.6077 71.798C90.5611 71.798 90.5144 71.798 90.4677 71.798C89.7491 71.798 89.1797 72.0127 88.7597 72.442C88.3397 72.8713 88.1297 73.492 88.1297 74.304V78H86.7857ZM94.6422 78.084C94.0262 78.084 93.4382 78 92.8782 77.832C92.3276 77.664 91.8936 77.4587 91.5762 77.216L92.1362 76.152C92.4536 76.3667 92.8456 76.5487 93.3122 76.698C93.7789 76.8473 94.2549 76.922 94.7402 76.922C95.3656 76.922 95.8136 76.8333 96.0842 76.656C96.3642 76.4787 96.5042 76.2313 96.5042 75.914C96.5042 75.6807 96.4202 75.4987 96.2522 75.368C96.0842 75.2373 95.8602 75.1393 95.5802 75.074C95.3096 75.0087 95.0062 74.9527 94.6702 74.906C94.3342 74.85 93.9982 74.7847 93.6622 74.71C93.3262 74.626 93.0182 74.514 92.7382 74.374C92.4582 74.2247 92.2342 74.024 92.0662 73.772C91.8982 73.5107 91.8142 73.1653 91.8142 72.736C91.8142 72.288 91.9402 71.896 92.1922 71.56C92.4442 71.224 92.7989 70.9673 93.2562 70.79C93.7229 70.6033 94.2736 70.51 94.9082 70.51C95.3936 70.51 95.8836 70.5707 96.3782 70.692C96.8822 70.804 97.2929 70.9673 97.6102 71.182L97.0362 72.246C96.7002 72.022 96.3502 71.868 95.9862 71.784C95.6222 71.7 95.2582 71.658 94.8942 71.658C94.3062 71.658 93.8676 71.756 93.5782 71.952C93.2889 72.1387 93.1442 72.3813 93.1442 72.68C93.1442 72.932 93.2282 73.128 93.3962 73.268C93.5736 73.3987 93.7976 73.5013 94.0682 73.576C94.3482 73.6507 94.6562 73.716 94.9922 73.772C95.3282 73.8187 95.6642 73.884 96.0002 73.968C96.3362 74.0427 96.6396 74.15 96.9102 74.29C97.1902 74.43 97.4142 74.626 97.5822 74.878C97.7596 75.13 97.8482 75.466 97.8482 75.886C97.8482 76.334 97.7176 76.7213 97.4562 77.048C97.1949 77.3747 96.8262 77.6313 96.3502 77.818C95.8742 77.9953 95.3049 78.084 94.6422 78.084ZM102.706 78.084C101.959 78.084 101.297 77.9207 100.718 77.594C100.139 77.2673 99.6819 76.8193 99.3459 76.25C99.0099 75.6713 98.8419 75.018 98.8419 74.29C98.8419 73.5527 99.0099 72.8993 99.3459 72.33C99.6819 71.7607 100.139 71.3173 100.718 71C101.297 70.6733 101.959 70.51 102.706 70.51C103.443 70.51 104.101 70.6733 104.68 71C105.268 71.3173 105.725 71.7607 106.052 72.33C106.388 72.89 106.556 73.5433 106.556 74.29C106.556 75.0273 106.388 75.6807 106.052 76.25C105.725 76.8193 105.268 77.2673 104.68 77.594C104.101 77.9207 103.443 78.084 102.706 78.084ZM102.706 76.908C103.182 76.908 103.607 76.8007 103.98 76.586C104.363 76.3713 104.661 76.068 104.876 75.676C105.091 75.2747 105.198 74.8127 105.198 74.29C105.198 73.758 105.091 73.3007 104.876 72.918C104.661 72.526 104.363 72.2227 103.98 72.008C103.607 71.7933 103.182 71.686 102.706 71.686C102.23 71.686 101.805 71.7933 101.432 72.008C101.059 72.2227 100.76 72.526 100.536 72.918C100.312 73.3007 100.2 73.758 100.2 74.29C100.2 74.8127 100.312 75.2747 100.536 75.676C100.76 76.068 101.059 76.3713 101.432 76.586C101.805 76.8007 102.23 76.908 102.706 76.908ZM112.377 70.51C112.983 70.51 113.515 70.6267 113.973 70.86C114.439 71.0933 114.803 71.448 115.065 71.924C115.326 72.4 115.457 73.002 115.457 73.73V78H114.113V73.884C114.113 73.1653 113.935 72.624 113.581 72.26C113.235 71.896 112.745 71.714 112.111 71.714C111.635 71.714 111.219 71.8073 110.865 71.994C110.51 72.1807 110.235 72.456 110.039 72.82C109.852 73.184 109.759 73.6367 109.759 74.178V78H108.415V70.58H109.703V72.582L109.493 72.05C109.735 71.5647 110.109 71.1867 110.613 70.916C111.117 70.6453 111.705 70.51 112.377 70.51ZM122.55 78V76.432L122.48 76.138V73.464C122.48 72.8947 122.312 72.456 121.976 72.148C121.649 71.8307 121.155 71.672 120.492 71.672C120.053 71.672 119.624 71.7467 119.204 71.896C118.784 72.036 118.429 72.2273 118.14 72.47L117.58 71.462C117.963 71.154 118.42 70.9207 118.952 70.762C119.493 70.594 120.058 70.51 120.646 70.51C121.663 70.51 122.447 70.7573 122.998 71.252C123.549 71.7467 123.824 72.5027 123.824 73.52V78H122.55ZM120.114 78.084C119.563 78.084 119.078 77.9907 118.658 77.804C118.247 77.6173 117.93 77.3607 117.706 77.034C117.482 76.698 117.37 76.32 117.37 75.9C117.37 75.4987 117.463 75.1347 117.65 74.808C117.846 74.4813 118.159 74.22 118.588 74.024C119.027 73.828 119.615 73.73 120.352 73.73H122.704V74.696H120.408C119.736 74.696 119.283 74.808 119.05 75.032C118.817 75.256 118.7 75.5267 118.7 75.844C118.7 76.208 118.845 76.502 119.134 76.726C119.423 76.9407 119.825 77.048 120.338 77.048C120.842 77.048 121.281 76.936 121.654 76.712C122.037 76.488 122.312 76.1613 122.48 75.732L122.746 76.656C122.569 77.0947 122.256 77.4447 121.808 77.706C121.36 77.958 120.795 78.084 120.114 78.084ZM126.311 78V67.612H127.655V78H126.311ZM130.221 78V70.58H131.565V78H130.221ZM130.893 69.152C130.632 69.152 130.413 69.068 130.235 68.9C130.067 68.732 129.983 68.5267 129.983 68.284C129.983 68.032 130.067 67.822 130.235 67.654C130.413 67.486 130.632 67.402 130.893 67.402C131.155 67.402 131.369 67.486 131.537 67.654C131.715 67.8127 131.803 68.0133 131.803 68.256C131.803 68.508 131.719 68.7227 131.551 68.9C131.383 69.068 131.164 69.152 130.893 69.152ZM133.417 78V77.132L138.177 71.224L138.443 71.686H133.501V70.58H139.521V71.462L134.761 77.356L134.453 76.894H139.633V78H133.417ZM146.038 78V76.432L145.968 76.138V73.464C145.968 72.8947 145.8 72.456 145.464 72.148C145.138 71.8307 144.643 71.672 143.98 71.672C143.542 71.672 143.112 71.7467 142.692 71.896C142.272 72.036 141.918 72.2273 141.628 72.47L141.068 71.462C141.451 71.154 141.908 70.9207 142.44 70.762C142.982 70.594 143.546 70.51 144.134 70.51C145.152 70.51 145.936 70.7573 146.486 71.252C147.037 71.7467 147.312 72.5027 147.312 73.52V78H146.038ZM143.602 78.084C143.052 78.084 142.566 77.9907 142.146 77.804C141.736 77.6173 141.418 77.3607 141.194 77.034C140.97 76.698 140.858 76.32 140.858 75.9C140.858 75.4987 140.952 75.1347 141.138 74.808C141.334 74.4813 141.647 74.22 142.076 74.024C142.515 73.828 143.103 73.73 143.84 73.73H146.192V74.696H143.896C143.224 74.696 142.772 74.808 142.538 75.032C142.305 75.256 142.188 75.5267 142.188 75.844C142.188 76.208 142.333 76.502 142.622 76.726C142.912 76.9407 143.313 77.048 143.826 77.048C144.33 77.048 144.769 76.936 145.142 76.712C145.525 76.488 145.8 76.1613 145.968 75.732L146.234 76.656C146.057 77.0947 145.744 77.4447 145.296 77.706C144.848 77.958 144.284 78.084 143.602 78.084ZM152.865 78.084C152.147 78.084 151.503 77.9253 150.933 77.608C150.373 77.2907 149.93 76.8473 149.603 76.278C149.277 75.7087 149.113 75.046 149.113 74.29C149.113 73.534 149.277 72.876 149.603 72.316C149.93 71.7467 150.373 71.3033 150.933 70.986C151.503 70.6687 152.147 70.51 152.865 70.51C153.491 70.51 154.055 70.65 154.559 70.93C155.063 71.21 155.465 71.63 155.763 72.19C156.071 72.75 156.225 73.45 156.225 74.29C156.225 75.13 156.076 75.83 155.777 76.39C155.488 76.95 155.091 77.3747 154.587 77.664C154.083 77.944 153.509 78.084 152.865 78.084ZM152.977 76.908C153.444 76.908 153.864 76.8007 154.237 76.586C154.62 76.3713 154.919 76.068 155.133 75.676C155.357 75.2747 155.469 74.8127 155.469 74.29C155.469 73.758 155.357 73.3007 155.133 72.918C154.919 72.526 154.62 72.2227 154.237 72.008C153.864 71.7933 153.444 71.686 152.977 71.686C152.501 71.686 152.077 71.7933 151.703 72.008C151.33 72.2227 151.031 72.526 150.807 72.918C150.583 73.3007 150.471 73.758 150.471 74.29C150.471 74.8127 150.583 75.2747 150.807 75.676C151.031 76.068 151.33 76.3713 151.703 76.586C152.077 76.8007 152.501 76.908 152.977 76.908ZM155.511 78V75.998L155.595 74.276L155.455 72.554V67.612H156.799V78H155.511ZM163.948 78V76.432L163.878 76.138V73.464C163.878 72.8947 163.71 72.456 163.374 72.148C163.048 71.8307 162.553 71.672 161.89 71.672C161.452 71.672 161.022 71.7467 160.602 71.896C160.182 72.036 159.828 72.2273 159.538 72.47L158.978 71.462C159.361 71.154 159.818 70.9207 160.35 70.762C160.892 70.594 161.456 70.51 162.044 70.51C163.062 70.51 163.846 70.7573 164.396 71.252C164.947 71.7467 165.222 72.5027 165.222 73.52V78H163.948ZM161.512 78.084C160.962 78.084 160.476 77.9907 160.056 77.804C159.646 77.6173 159.328 77.3607 159.104 77.034C158.88 76.698 158.768 76.32 158.768 75.9C158.768 75.4987 158.862 75.1347 159.048 74.808C159.244 74.4813 159.557 74.22 159.986 74.024C160.425 73.828 161.013 73.73 161.75 73.73H164.102V74.696H161.806C161.134 74.696 160.682 74.808 160.448 75.032C160.215 75.256 160.098 75.5267 160.098 75.844C160.098 76.208 160.243 76.502 160.532 76.726C160.822 76.9407 161.223 77.048 161.736 77.048C162.24 77.048 162.679 76.936 163.052 76.712C163.435 76.488 163.71 76.1613 163.878 75.732L164.144 76.656C163.967 77.0947 163.654 77.4447 163.206 77.706C162.758 77.958 162.194 78.084 161.512 78.084Z" fill="black"/>
<defs>
<filter id="filter0_d_116_43" x="0" y="0" width="321" height="249.233" filterUnits="userSpaceOnUse" color-interpolation-filters="sRGB">
<feFlood flood-opacity="0" result="BackgroundImageFix"/>
<feColorMatrix in="SourceAlpha" type="matrix" values="0 0 0 0 0 0 0 0 0 0 0 0 0 0 0 0 0 0 127 0" result="hardAlpha"/>
<feOffset dy="15"/>
<feGaussianBlur stdDeviation="22.5"/>
<feColorMatrix type="matrix" values="0 0 0 0 0.301961 0 0 0 0 0.243137 0 0 0 0 0.243137 0 0 0 0.29 0"/>
<feBlend mode="normal" in2="BackgroundImageFix" result="effect1_dropShadow_116_43"/>
<feBlend mode="normal" in="SourceGraphic" in2="effect1_dropShadow_116_43" result="shape"/>
</filter>
<linearGradient id="paint0_linear_116_43" x1="163.864" y1="88.3108" x2="163.864" y2="189.233" gradientUnits="userSpaceOnUse">
<stop stop-color="#61DA17"/>
<stop offset="1" stop-color="#D3F13A"/>
</linearGradient>
<linearGradient id="paint1_linear_116_43" x1="121.252" y1="112.98" x2="121.252" y2="189.233" gradientUnits="userSpaceOnUse">
<stop stop-color="#61DA17"/>
<stop offset="1" stop-color="#D3F13A"/>
</linearGradient>
<linearGradient id="paint2_linear_116_43" x1="79.3883" y1="100.272" x2="79.3883" y2="189.233" gradientUnits="userSpaceOnUse">
<stop stop-color="#61DA17"/>
<stop offset="1" stop-color="#D3F13A"/>
</linearGradient>
<linearGradient id="paint3_linear_116_43" x1="247.966" y1="67.3787" x2="247.966" y2="189.233" gradientUnits="userSpaceOnUse">
<stop stop-color="#61DA17"/>
<stop offset="1" stop-color="#D3F13A"/>
</linearGradient>
<linearGradient id="paint4_linear_116_43" x1="205.728" y1="100.272" x2="205.728" y2="189.233" gradientUnits="userSpaceOnUse">
<stop stop-color="#61DA17"/>
<stop offset="1" stop-color="#D3F13A"/>
</linearGradient>
</defs>
</svg>
