<svg width="339" height="246" viewBox="0 0 339 246" fill="none" xmlns="http://www.w3.org/2000/svg">
<g filter="url(#filter0_d_116_41)">
<path d="M269.705 30H69.1618C55.8176 30 45 40.8176 45 54.1618V170.139C45 183.483 55.8176 194.301 69.1618 194.301H269.705C283.049 194.301 293.867 183.483 293.867 170.139V54.1618C293.867 40.8176 283.049 30 269.705 30Z" fill="white"/>
</g>
<mask id="mask0_116_41" style="mask-type:alpha" maskUnits="userSpaceOnUse" x="45" y="30" width="249" height="165">
<path d="M269.705 30H69.1618C55.8176 30 45 40.8176 45 54.1618V170.139C45 183.483 55.8176 194.301 69.1618 194.301H269.705C283.049 194.301 293.867 183.483 293.867 170.139V54.1618C293.867 40.8176 283.049 30 269.705 30Z" fill="white"/>
</mask>
<g mask="url(#mask0_116_41)">
<path d="M23.9526 173.896C23.9526 173.896 70.8935 110.896 90.6586 115.837C110.424 120.778 147.482 162.16 170.956 146.719C194.431 131.278 218.515 90.5142 240.75 90.5142C262.986 90.5142 301.28 115.837 301.28 115.837V212.807H23.9526V173.896Z" fill="url(#paint0_linear_116_41)"/>
</g>
<path opacity="0.29" d="M98.566 117.788L134.292 139.204V194.106H98.4381L98.566 117.788Z" fill="white"/>
<path d="M69.8264 63.3296V53.5296H73.9564C75.0018 53.5296 75.9211 53.7349 76.7144 54.1456C77.5171 54.5563 78.1378 55.1303 78.5764 55.8676C79.0244 56.6049 79.2484 57.4589 79.2484 58.4296C79.2484 59.4003 79.0244 60.2543 78.5764 60.9916C78.1378 61.7289 77.5171 62.3029 76.7144 62.7136C75.9211 63.1243 75.0018 63.3296 73.9564 63.3296H69.8264ZM71.2264 62.1116H73.8724C74.6844 62.1116 75.3844 61.9576 75.9724 61.6496C76.5698 61.3416 77.0318 60.9123 77.3584 60.3616C77.6851 59.8016 77.8484 59.1576 77.8484 58.4296C77.8484 57.6923 77.6851 57.0483 77.3584 56.4976C77.0318 55.9469 76.5698 55.5176 75.9724 55.2096C75.3844 54.9016 74.6844 54.7476 73.8724 54.7476H71.2264V62.1116ZM84.5009 63.4136C83.7075 63.4136 83.0075 63.2503 82.4009 62.9236C81.8035 62.5969 81.3369 62.1489 81.0009 61.5796C80.6742 61.0103 80.5109 60.3569 80.5109 59.6196C80.5109 58.8823 80.6695 58.2289 80.9869 57.6596C81.3135 57.0903 81.7569 56.6469 82.3169 56.3296C82.8862 56.0029 83.5255 55.8396 84.2349 55.8396C84.9535 55.8396 85.5882 55.9983 86.1389 56.3156C86.6895 56.6329 87.1189 57.0809 87.4269 57.6596C87.7442 58.2289 87.9029 58.8963 87.9029 59.6616C87.9029 59.7176 87.8982 59.7829 87.8889 59.8576C87.8889 59.9323 87.8842 60.0023 87.8749 60.0676H81.5609V59.1016H87.1749L86.6289 59.4376C86.6382 58.9616 86.5402 58.5369 86.3349 58.1636C86.1295 57.7903 85.8449 57.5009 85.4809 57.2956C85.1262 57.0809 84.7109 56.9736 84.2349 56.9736C83.7682 56.9736 83.3529 57.0809 82.9889 57.2956C82.6249 57.5009 82.3402 57.7949 82.1349 58.1776C81.9295 58.5509 81.8269 58.9803 81.8269 59.4656V59.6896C81.8269 60.1843 81.9389 60.6276 82.1629 61.0196C82.3962 61.4023 82.7182 61.7009 83.1289 61.9156C83.5395 62.1303 84.0109 62.2376 84.5429 62.2376C84.9815 62.2376 85.3782 62.1629 85.7329 62.0136C86.0969 61.8643 86.4142 61.6403 86.6849 61.3416L87.4269 62.2096C87.0909 62.6016 86.6709 62.9003 86.1669 63.1056C85.6722 63.3109 85.1169 63.4136 84.5009 63.4136ZM91.8971 63.4136C91.2811 63.4136 90.6931 63.3296 90.1331 63.1616C89.5825 62.9936 89.1485 62.7883 88.8311 62.5456L89.3911 61.4816C89.7085 61.6963 90.1005 61.8783 90.5671 62.0276C91.0338 62.1769 91.5098 62.2516 91.9951 62.2516C92.6205 62.2516 93.0685 62.1629 93.3391 61.9856C93.6191 61.8083 93.7591 61.5609 93.7591 61.2436C93.7591 61.0103 93.6751 60.8283 93.5071 60.6976C93.3391 60.5669 93.1151 60.4689 92.8351 60.4036C92.5645 60.3383 92.2611 60.2823 91.9251 60.2356C91.5891 60.1796 91.2531 60.1143 90.9171 60.0396C90.5811 59.9556 90.2731 59.8436 89.9931 59.7036C89.7131 59.5543 89.4891 59.3536 89.3211 59.1016C89.1531 58.8403 89.0691 58.4949 89.0691 58.0656C89.0691 57.6176 89.1951 57.2256 89.4471 56.8896C89.6991 56.5536 90.0538 56.2969 90.5111 56.1196C90.9778 55.9329 91.5285 55.8396 92.1631 55.8396C92.6485 55.8396 93.1385 55.9003 93.6331 56.0216C94.1371 56.1336 94.5478 56.2969 94.8651 56.5116L94.2911 57.5756C93.9551 57.3516 93.6051 57.1976 93.2411 57.1136C92.8771 57.0296 92.5131 56.9876 92.1491 56.9876C91.5611 56.9876 91.1225 57.0856 90.8331 57.2816C90.5438 57.4683 90.3991 57.7109 90.3991 58.0096C90.3991 58.2616 90.4831 58.4576 90.6511 58.5976C90.8285 58.7283 91.0525 58.8309 91.3231 58.9056C91.6031 58.9803 91.9111 59.0456 92.2471 59.1016C92.5831 59.1483 92.9191 59.2136 93.2551 59.2976C93.5911 59.3723 93.8945 59.4796 94.1651 59.6196C94.4451 59.7596 94.6691 59.9556 94.8371 60.2076C95.0145 60.4596 95.1031 60.7956 95.1031 61.2156C95.1031 61.6636 94.9725 62.0509 94.7111 62.3776C94.4498 62.7043 94.0811 62.9609 93.6051 63.1476C93.1291 63.3249 92.5598 63.4136 91.8971 63.4136ZM96.7828 63.3296V55.9096H98.1268V63.3296H96.7828ZM97.4548 54.4816C97.1935 54.4816 96.9741 54.3976 96.7968 54.2296C96.6288 54.0616 96.5448 53.8563 96.5448 53.6136C96.5448 53.3616 96.6288 53.1516 96.7968 52.9836C96.9741 52.8156 97.1935 52.7316 97.4548 52.7316C97.7161 52.7316 97.9308 52.8156 98.0988 52.9836C98.2761 53.1423 98.3648 53.3429 98.3648 53.5856C98.3648 53.8376 98.2808 54.0523 98.1128 54.2296C97.9448 54.3976 97.7255 54.4816 97.4548 54.4816ZM103.941 66.1296C103.26 66.1296 102.597 66.0316 101.953 65.8356C101.318 65.6489 100.8 65.3783 100.399 65.0236L101.043 63.9876C101.388 64.2863 101.813 64.5196 102.317 64.6876C102.821 64.8649 103.348 64.9536 103.899 64.9536C104.776 64.9536 105.42 64.7483 105.831 64.3376C106.242 63.9269 106.447 63.3016 106.447 62.4616V60.8936L106.587 59.4236L106.517 57.9396V55.9096H107.791V62.3216C107.791 63.6283 107.464 64.5896 106.811 65.2056C106.158 65.8216 105.201 66.1296 103.941 66.1296ZM103.773 63.0216C103.054 63.0216 102.41 62.8723 101.841 62.5736C101.281 62.2656 100.833 61.8409 100.497 61.2996C100.17 60.7583 100.007 60.1329 100.007 59.4236C100.007 58.7049 100.17 58.0796 100.497 57.5476C100.833 57.0063 101.281 56.5863 101.841 56.2876C102.41 55.9889 103.054 55.8396 103.773 55.8396C104.408 55.8396 104.986 55.9703 105.509 56.2316C106.032 56.4836 106.447 56.8756 106.755 57.4076C107.072 57.9396 107.231 58.6116 107.231 59.4236C107.231 60.2263 107.072 60.8936 106.755 61.4256C106.447 61.9576 106.032 62.3589 105.509 62.6296C104.986 62.8909 104.408 63.0216 103.773 63.0216ZM103.927 61.8456C104.422 61.8456 104.86 61.7429 105.243 61.5376C105.626 61.3323 105.924 61.0476 106.139 60.6836C106.363 60.3196 106.475 59.8996 106.475 59.4236C106.475 58.9476 106.363 58.5276 106.139 58.1636C105.924 57.7996 105.626 57.5196 105.243 57.3236C104.86 57.1183 104.422 57.0156 103.927 57.0156C103.432 57.0156 102.989 57.1183 102.597 57.3236C102.214 57.5196 101.911 57.7996 101.687 58.1636C101.472 58.5276 101.365 58.9476 101.365 59.4236C101.365 59.8996 101.472 60.3196 101.687 60.6836C101.911 61.0476 102.214 61.3323 102.597 61.5376C102.989 61.7429 103.432 61.8456 103.927 61.8456ZM114.321 55.8396C114.928 55.8396 115.46 55.9563 115.917 56.1896C116.384 56.4229 116.748 56.7776 117.009 57.2536C117.27 57.7296 117.401 58.3316 117.401 59.0596V63.3296H116.057V59.2136C116.057 58.4949 115.88 57.9536 115.525 57.5896C115.18 57.2256 114.69 57.0436 114.055 57.0436C113.579 57.0436 113.164 57.1369 112.809 57.3236C112.454 57.5103 112.179 57.7856 111.983 58.1496C111.796 58.5136 111.703 58.9663 111.703 59.5076V63.3296H110.359V55.9096H111.647V57.9116L111.437 57.3796C111.68 56.8943 112.053 56.5163 112.557 56.2456C113.061 55.9749 113.649 55.8396 114.321 55.8396ZM122.016 63.4136C121.4 63.4136 120.812 63.3296 120.252 63.1616C119.702 62.9936 119.268 62.7883 118.95 62.5456L119.51 61.4816C119.828 61.6963 120.22 61.8783 120.686 62.0276C121.153 62.1769 121.629 62.2516 122.114 62.2516C122.74 62.2516 123.188 62.1629 123.458 61.9856C123.738 61.8083 123.878 61.5609 123.878 61.2436C123.878 61.0103 123.794 60.8283 123.626 60.6976C123.458 60.5669 123.234 60.4689 122.954 60.4036C122.684 60.3383 122.38 60.2823 122.044 60.2356C121.708 60.1796 121.372 60.1143 121.036 60.0396C120.7 59.9556 120.392 59.8436 120.112 59.7036C119.832 59.5543 119.608 59.3536 119.44 59.1016C119.272 58.8403 119.188 58.4949 119.188 58.0656C119.188 57.6176 119.314 57.2256 119.566 56.8896C119.818 56.5536 120.173 56.2969 120.63 56.1196C121.097 55.9329 121.648 55.8396 122.282 55.8396C122.768 55.8396 123.258 55.9003 123.752 56.0216C124.256 56.1336 124.667 56.2969 124.984 56.5116L124.41 57.5756C124.074 57.3516 123.724 57.1976 123.36 57.1136C122.996 57.0296 122.632 56.9876 122.268 56.9876C121.68 56.9876 121.242 57.0856 120.952 57.2816C120.663 57.4683 120.518 57.7109 120.518 58.0096C120.518 58.2616 120.602 58.4576 120.77 58.5976C120.948 58.7283 121.172 58.8309 121.442 58.9056C121.722 58.9803 122.03 59.0456 122.366 59.1016C122.702 59.1483 123.038 59.2136 123.374 59.2976C123.71 59.3723 124.014 59.4796 124.284 59.6196C124.564 59.7596 124.788 59.9556 124.956 60.2076C125.134 60.4596 125.222 60.7956 125.222 61.2156C125.222 61.6636 125.092 62.0509 124.83 62.3776C124.569 62.7043 124.2 62.9609 123.724 63.1476C123.248 63.3249 122.679 63.4136 122.016 63.4136ZM133.728 63.4136C133.009 63.4136 132.365 63.2549 131.796 62.9376C131.236 62.6203 130.792 62.1769 130.466 61.6076C130.139 61.0383 129.976 60.3756 129.976 59.6196C129.976 58.8636 130.139 58.2056 130.466 57.6456C130.792 57.0763 131.236 56.6329 131.796 56.3156C132.365 55.9983 133.009 55.8396 133.728 55.8396C134.353 55.8396 134.918 55.9796 135.422 56.2596C135.926 56.5396 136.327 56.9596 136.626 57.5196C136.934 58.0796 137.088 58.7796 137.088 59.6196C137.088 60.4596 136.938 61.1596 136.64 61.7196C136.35 62.2796 135.954 62.7043 135.45 62.9936C134.946 63.2736 134.372 63.4136 133.728 63.4136ZM133.84 62.2376C134.306 62.2376 134.726 62.1303 135.1 61.9156C135.482 61.7009 135.781 61.3976 135.996 61.0056C136.22 60.6043 136.332 60.1423 136.332 59.6196C136.332 59.0876 136.22 58.6303 135.996 58.2476C135.781 57.8556 135.482 57.5523 135.1 57.3376C134.726 57.1229 134.306 57.0156 133.84 57.0156C133.364 57.0156 132.939 57.1229 132.566 57.3376C132.192 57.5523 131.894 57.8556 131.67 58.2476C131.446 58.6303 131.334 59.0876 131.334 59.6196C131.334 60.1423 131.446 60.6043 131.67 61.0056C131.894 61.3976 132.192 61.7009 132.566 61.9156C132.939 62.1303 133.364 62.2376 133.84 62.2376ZM136.374 63.3296V61.3276L136.458 59.6056L136.318 57.8836V52.9416H137.662V63.3296H136.374ZM143.509 63.4136C142.715 63.4136 142.015 63.2503 141.409 62.9236C140.811 62.5969 140.345 62.1489 140.009 61.5796C139.682 61.0103 139.519 60.3569 139.519 59.6196C139.519 58.8823 139.677 58.2289 139.995 57.6596C140.321 57.0903 140.765 56.6469 141.325 56.3296C141.894 56.0029 142.533 55.8396 143.243 55.8396C143.961 55.8396 144.596 55.9983 145.147 56.3156C145.697 56.6329 146.127 57.0809 146.435 57.6596C146.752 58.2289 146.911 58.8963 146.911 59.6616C146.911 59.7176 146.906 59.7829 146.897 59.8576C146.897 59.9323 146.892 60.0023 146.883 60.0676H140.569V59.1016H146.183L145.637 59.4376C145.646 58.9616 145.548 58.5369 145.343 58.1636C145.137 57.7903 144.853 57.5009 144.489 57.2956C144.134 57.0809 143.719 56.9736 143.243 56.9736C142.776 56.9736 142.361 57.0809 141.997 57.2956C141.633 57.5009 141.348 57.7949 141.143 58.1776C140.937 58.5509 140.835 58.9803 140.835 59.4656V59.6896C140.835 60.1843 140.947 60.6276 141.171 61.0196C141.404 61.4023 141.726 61.7009 142.137 61.9156C142.547 62.1303 143.019 62.2376 143.551 62.2376C143.989 62.2376 144.386 62.1629 144.741 62.0136C145.105 61.8643 145.422 61.6403 145.693 61.3416L146.435 62.2096C146.099 62.6016 145.679 62.9003 145.175 63.1056C144.68 63.3109 144.125 63.4136 143.509 63.4136ZM152.733 63.3296V53.5296H154.133V63.3296H152.733ZM160.833 55.8396C161.439 55.8396 161.971 55.9563 162.429 56.1896C162.895 56.4229 163.259 56.7776 163.521 57.2536C163.782 57.7296 163.913 58.3316 163.913 59.0596V63.3296H162.569V59.2136C162.569 58.4949 162.391 57.9536 162.037 57.5896C161.691 57.2256 161.201 57.0436 160.567 57.0436C160.091 57.0436 159.675 57.1369 159.321 57.3236C158.966 57.5103 158.691 57.7856 158.495 58.1496C158.308 58.5136 158.215 58.9663 158.215 59.5076V63.3296H156.871V55.9096H158.159V57.9116L157.949 57.3796C158.191 56.8943 158.565 56.5163 159.069 56.2456C159.573 55.9749 160.161 55.8396 160.833 55.8396ZM168.948 63.4136C168.201 63.4136 167.623 63.2129 167.212 62.8116C166.801 62.4103 166.596 61.8363 166.596 61.0896V54.2856H167.94V61.0336C167.94 61.4349 168.038 61.7429 168.234 61.9576C168.439 62.1723 168.729 62.2796 169.102 62.2796C169.522 62.2796 169.872 62.1629 170.152 61.9296L170.572 62.8956C170.367 63.0729 170.119 63.2036 169.83 63.2876C169.55 63.3716 169.256 63.4136 168.948 63.4136ZM165.336 57.0156V55.9096H170.068V57.0156H165.336ZM175.255 63.4136C174.461 63.4136 173.761 63.2503 173.155 62.9236C172.557 62.5969 172.091 62.1489 171.755 61.5796C171.428 61.0103 171.265 60.3569 171.265 59.6196C171.265 58.8823 171.423 58.2289 171.741 57.6596C172.067 57.0903 172.511 56.6469 173.071 56.3296C173.64 56.0029 174.279 55.8396 174.989 55.8396C175.707 55.8396 176.342 55.9983 176.893 56.3156C177.443 56.6329 177.873 57.0809 178.181 57.6596C178.498 58.2289 178.657 58.8963 178.657 59.6616C178.657 59.7176 178.652 59.7829 178.643 59.8576C178.643 59.9323 178.638 60.0023 178.629 60.0676H172.315V59.1016H177.929L177.383 59.4376C177.392 58.9616 177.294 58.5369 177.089 58.1636C176.883 57.7903 176.599 57.5009 176.235 57.2956C175.88 57.0809 175.465 56.9736 174.989 56.9736C174.522 56.9736 174.107 57.0809 173.743 57.2956C173.379 57.5009 173.094 57.7949 172.889 58.1776C172.683 58.5509 172.581 58.9803 172.581 59.4656V59.6896C172.581 60.1843 172.693 60.6276 172.917 61.0196C173.15 61.4023 173.472 61.7009 173.883 61.9156C174.293 62.1303 174.765 62.2376 175.297 62.2376C175.735 62.2376 176.132 62.1629 176.487 62.0136C176.851 61.8643 177.168 61.6403 177.439 61.3416L178.181 62.2096C177.845 62.6016 177.425 62.9003 176.921 63.1056C176.426 63.3109 175.871 63.4136 175.255 63.4136ZM180.523 63.3296V55.9096H181.811V57.9256L181.685 57.4216C181.89 56.9083 182.236 56.5163 182.721 56.2456C183.206 55.9749 183.804 55.8396 184.513 55.8396V57.1416C184.457 57.1323 184.401 57.1276 184.345 57.1276C184.298 57.1276 184.252 57.1276 184.205 57.1276C183.486 57.1276 182.917 57.3423 182.497 57.7716C182.077 58.2009 181.867 58.8216 181.867 59.6336V63.3296H180.523ZM186.461 63.3296V55.2516C186.461 54.5236 186.671 53.9449 187.091 53.5156C187.521 53.0769 188.127 52.8576 188.911 52.8576C189.201 52.8576 189.476 52.8949 189.737 52.9696C190.008 53.0349 190.237 53.1423 190.423 53.2916L190.017 54.3136C189.877 54.2016 189.719 54.1176 189.541 54.0616C189.364 53.9963 189.177 53.9636 188.981 53.9636C188.589 53.9636 188.291 54.0756 188.085 54.2996C187.88 54.5143 187.777 54.8363 187.777 55.2656V56.2596L187.805 56.8756V63.3296H186.461ZM185.201 57.0156V55.9096H189.933V57.0156H185.201ZM195.67 63.3296V61.7616L195.6 61.4676V58.7936C195.6 58.2243 195.432 57.7856 195.096 57.4776C194.769 57.1603 194.275 57.0016 193.612 57.0016C193.173 57.0016 192.744 57.0763 192.324 57.2256C191.904 57.3656 191.549 57.5569 191.26 57.7996L190.7 56.7916C191.083 56.4836 191.54 56.2503 192.072 56.0916C192.613 55.9236 193.178 55.8396 193.766 55.8396C194.783 55.8396 195.567 56.0869 196.118 56.5816C196.669 57.0763 196.944 57.8323 196.944 58.8496V63.3296H195.67ZM193.234 63.4136C192.683 63.4136 192.198 63.3203 191.778 63.1336C191.367 62.9469 191.05 62.6903 190.826 62.3636C190.602 62.0276 190.49 61.6496 190.49 61.2296C190.49 60.8283 190.583 60.4643 190.77 60.1376C190.966 59.8109 191.279 59.5496 191.708 59.3536C192.147 59.1576 192.735 59.0596 193.472 59.0596H195.824V60.0256H193.528C192.856 60.0256 192.403 60.1376 192.17 60.3616C191.937 60.5856 191.82 60.8563 191.82 61.1736C191.82 61.5376 191.965 61.8316 192.254 62.0556C192.543 62.2703 192.945 62.3776 193.458 62.3776C193.962 62.3776 194.401 62.2656 194.774 62.0416C195.157 61.8176 195.432 61.4909 195.6 61.0616L195.866 61.9856C195.689 62.4243 195.376 62.7743 194.928 63.0356C194.48 63.2876 193.915 63.4136 193.234 63.4136ZM202.665 63.4136C201.909 63.4136 201.233 63.2503 200.635 62.9236C200.047 62.5969 199.585 62.1489 199.249 61.5796C198.913 61.0103 198.745 60.3569 198.745 59.6196C198.745 58.8823 198.913 58.2289 199.249 57.6596C199.585 57.0903 200.047 56.6469 200.635 56.3296C201.233 56.0029 201.909 55.8396 202.665 55.8396C203.337 55.8396 203.935 55.9749 204.457 56.2456C204.989 56.5069 205.4 56.8989 205.689 57.4216L204.667 58.0796C204.425 57.7156 204.126 57.4496 203.771 57.2816C203.426 57.1043 203.053 57.0156 202.651 57.0156C202.166 57.0156 201.732 57.1229 201.349 57.3376C200.967 57.5523 200.663 57.8556 200.439 58.2476C200.215 58.6303 200.103 59.0876 200.103 59.6196C200.103 60.1516 200.215 60.6136 200.439 61.0056C200.663 61.3976 200.967 61.7009 201.349 61.9156C201.732 62.1303 202.166 62.2376 202.651 62.2376C203.053 62.2376 203.426 62.1536 203.771 61.9856C204.126 61.8083 204.425 61.5376 204.667 61.1736L205.689 61.8176C205.4 62.3309 204.989 62.7276 204.457 63.0076C203.935 63.2783 203.337 63.4136 202.665 63.4136ZM210.624 63.4136C209.831 63.4136 209.131 63.2503 208.524 62.9236C207.927 62.5969 207.46 62.1489 207.124 61.5796C206.797 61.0103 206.634 60.3569 206.634 59.6196C206.634 58.8823 206.793 58.2289 207.11 57.6596C207.437 57.0903 207.88 56.6469 208.44 56.3296C209.009 56.0029 209.649 55.8396 210.358 55.8396C211.077 55.8396 211.711 55.9983 212.262 56.3156C212.813 56.6329 213.242 57.0809 213.55 57.6596C213.867 58.2289 214.026 58.8963 214.026 59.6616C214.026 59.7176 214.021 59.7829 214.012 59.8576C214.012 59.9323 214.007 60.0023 213.998 60.0676H207.684V59.1016H213.298L212.752 59.4376C212.761 58.9616 212.663 58.5369 212.458 58.1636C212.253 57.7903 211.968 57.5009 211.604 57.2956C211.249 57.0809 210.834 56.9736 210.358 56.9736C209.891 56.9736 209.476 57.0809 209.112 57.2956C208.748 57.5009 208.463 57.7949 208.258 58.1776C208.053 58.5509 207.95 58.9803 207.95 59.4656V59.6896C207.95 60.1843 208.062 60.6276 208.286 61.0196C208.519 61.4023 208.841 61.7009 209.252 61.9156C209.663 62.1303 210.134 62.2376 210.666 62.2376C211.105 62.2376 211.501 62.1629 211.856 62.0136C212.22 61.8643 212.537 61.6403 212.808 61.3416L213.55 62.2096C213.214 62.6016 212.794 62.9003 212.29 63.1056C211.795 63.3109 211.24 63.4136 210.624 63.4136ZM219.848 63.3296V53.5296H221.248V63.3296H219.848ZM227.948 55.8396C228.555 55.8396 229.087 55.9563 229.544 56.1896C230.011 56.4229 230.375 56.7776 230.636 57.2536C230.897 57.7296 231.028 58.3316 231.028 59.0596V63.3296H229.684V59.2136C229.684 58.4949 229.507 57.9536 229.152 57.5896C228.807 57.2256 228.317 57.0436 227.682 57.0436C227.206 57.0436 226.791 57.1369 226.436 57.3236C226.081 57.5103 225.806 57.7856 225.61 58.1496C225.423 58.5136 225.33 58.9663 225.33 59.5076V63.3296H223.986V55.9096H225.274V57.9116L225.064 57.3796C225.307 56.8943 225.68 56.5163 226.184 56.2456C226.688 55.9749 227.276 55.8396 227.948 55.8396ZM236.063 63.4136C235.317 63.4136 234.738 63.2129 234.327 62.8116C233.917 62.4103 233.711 61.8363 233.711 61.0896V54.2856H235.055V61.0336C235.055 61.4349 235.153 61.7429 235.349 61.9576C235.555 62.1723 235.844 62.2796 236.217 62.2796C236.637 62.2796 236.987 62.1629 237.267 61.9296L237.687 62.8956C237.482 63.0729 237.235 63.2036 236.945 63.2876C236.665 63.3716 236.371 63.4136 236.063 63.4136ZM232.451 57.0156V55.9096H237.183V57.0156H232.451ZM242.434 63.4136C241.799 63.4136 241.239 63.2969 240.754 63.0636C240.278 62.8303 239.905 62.4756 239.634 61.9996C239.373 61.5143 239.242 60.9076 239.242 60.1796V55.9096H240.586V60.0256C240.586 60.7536 240.759 61.2996 241.104 61.6636C241.459 62.0276 241.953 62.2096 242.588 62.2096C243.055 62.2096 243.461 62.1163 243.806 61.9296C244.151 61.7336 244.417 61.4536 244.604 61.0896C244.791 60.7163 244.884 60.2683 244.884 59.7456V55.9096H246.228V63.3296H244.954V61.3276L245.164 61.8596C244.921 62.3543 244.557 62.7369 244.072 63.0076C243.587 63.2783 243.041 63.4136 242.434 63.4136ZM248.787 63.3296V55.9096H250.131V63.3296H248.787ZM249.459 54.4816C249.197 54.4816 248.978 54.3976 248.801 54.2296C248.633 54.0616 248.549 53.8563 248.549 53.6136C248.549 53.3616 248.633 53.1516 248.801 52.9836C248.978 52.8156 249.197 52.7316 249.459 52.7316C249.72 52.7316 249.935 52.8156 250.103 52.9836C250.28 53.1423 250.369 53.3429 250.369 53.5856C250.369 53.8376 250.285 54.0523 250.117 54.2296C249.949 54.3976 249.729 54.4816 249.459 54.4816ZM255.245 63.4136C254.498 63.4136 253.92 63.2129 253.509 62.8116C253.098 62.4103 252.893 61.8363 252.893 61.0896V54.2856H254.237V61.0336C254.237 61.4349 254.335 61.7429 254.531 61.9576C254.736 62.1723 255.026 62.2796 255.399 62.2796C255.819 62.2796 256.169 62.1629 256.449 61.9296L256.869 62.8956C256.664 63.0729 256.416 63.2036 256.127 63.2876C255.847 63.3716 255.553 63.4136 255.245 63.4136ZM251.633 57.0156V55.9096H256.365V57.0156H251.633ZM258.494 63.3296V55.9096H259.838V63.3296H258.494ZM259.166 54.4816C258.904 54.4816 258.685 54.3976 258.508 54.2296C258.34 54.0616 258.256 53.8563 258.256 53.6136C258.256 53.3616 258.34 53.1516 258.508 52.9836C258.685 52.8156 258.904 52.7316 259.166 52.7316C259.427 52.7316 259.642 52.8156 259.81 52.9836C259.987 53.1423 260.076 53.3429 260.076 53.5856C260.076 53.8376 259.992 54.0523 259.824 54.2296C259.656 54.3976 259.436 54.4816 259.166 54.4816ZM264.35 63.3296L261.102 55.9096H262.502L265.386 62.6296H264.714L267.654 55.9096H268.97L265.722 63.3296H264.35ZM273.197 63.4136C272.45 63.4136 271.788 63.2503 271.209 62.9236C270.63 62.5969 270.173 62.1489 269.837 61.5796C269.501 61.0009 269.333 60.3476 269.333 59.6196C269.333 58.8823 269.501 58.2289 269.837 57.6596C270.173 57.0903 270.63 56.6469 271.209 56.3296C271.788 56.0029 272.45 55.8396 273.197 55.8396C273.934 55.8396 274.592 56.0029 275.171 56.3296C275.759 56.6469 276.216 57.0903 276.543 57.6596C276.879 58.2196 277.047 58.8729 277.047 59.6196C277.047 60.3569 276.879 61.0103 276.543 61.5796C276.216 62.1489 275.759 62.5969 275.171 62.9236C274.592 63.2503 273.934 63.4136 273.197 63.4136ZM273.197 62.2376C273.673 62.2376 274.098 62.1303 274.471 61.9156C274.854 61.7009 275.152 61.3976 275.367 61.0056C275.582 60.6043 275.689 60.1423 275.689 59.6196C275.689 59.0876 275.582 58.6303 275.367 58.2476C275.152 57.8556 274.854 57.5523 274.471 57.3376C274.098 57.1229 273.673 57.0156 273.197 57.0156C272.721 57.0156 272.296 57.1229 271.923 57.3376C271.55 57.5523 271.251 57.8556 271.027 58.2476C270.803 58.6303 270.691 59.0876 270.691 59.6196C270.691 60.1423 270.803 60.6043 271.027 61.0056C271.251 61.3976 271.55 61.7009 271.923 61.9156C272.296 62.1303 272.721 62.2376 273.197 62.2376Z" fill="black"/>
<path opacity="0.08" d="M238.295 104.096C244.522 104.096 249.57 99.0482 249.57 92.8209C249.57 86.5936 244.522 81.5454 238.295 81.5454C232.067 81.5454 227.019 86.5936 227.019 92.8209C227.019 99.0482 232.067 104.096 238.295 104.096Z" fill="black"/>
<path d="M238.697 96.8476C241.144 96.8476 243.127 94.8644 243.127 92.418C243.127 89.9715 241.144 87.9883 238.697 87.9883C236.251 87.9883 234.268 89.9715 234.268 92.418C234.268 94.8644 236.251 96.8476 238.697 96.8476Z" fill="white"/>
<path opacity="0.08" d="M157.755 160.474C163.983 160.474 169.031 155.426 169.031 149.198C169.031 142.971 163.983 137.923 157.755 137.923C151.528 137.923 146.48 142.971 146.48 149.198C146.48 155.426 151.528 160.474 157.755 160.474Z" fill="black"/>
<path d="M158.158 153.225C160.604 153.225 162.588 151.242 162.588 148.796C162.588 146.349 160.604 144.366 158.158 144.366C155.712 144.366 153.728 146.349 153.728 148.796C153.728 151.242 155.712 153.225 158.158 153.225Z" fill="white"/>
<defs>
<filter id="filter0_d_116_41" x="0" y="0" width="338.867" height="254.301" filterUnits="userSpaceOnUse" color-interpolation-filters="sRGB">
<feFlood flood-opacity="0" result="BackgroundImageFix"/>
<feColorMatrix in="SourceAlpha" type="matrix" values="0 0 0 0 0 0 0 0 0 0 0 0 0 0 0 0 0 0 127 0" result="hardAlpha"/>
<feOffset dy="15"/>
<feGaussianBlur stdDeviation="22.5"/>
<feColorMatrix type="matrix" values="0 0 0 0 0.301961 0 0 0 0 0.243137 0 0 0 0 0.243137 0 0 0 0.29 0"/>
<feBlend mode="normal" in2="BackgroundImageFix" result="effect1_dropShadow_116_41"/>
<feBlend mode="normal" in="SourceGraphic" in2="effect1_dropShadow_116_41" result="shape"/>
</filter>
<linearGradient id="paint0_linear_116_41" x1="162.616" y1="90.5142" x2="162.616" y2="212.807" gradientUnits="userSpaceOnUse">
<stop stop-color="#61DA17"/>
<stop offset="1" stop-color="#D3F13A"/>
</linearGradient>
</defs>
</svg>
